<svg xmlns="http://www.w3.org/2000/svg" xmlns:xlink="http://www.w3.org/1999/xlink" width="2000" zoomAndPan="magnify" viewBox="0 0 1500 1499.999933" height="2000" preserveAspectRatio="xMidYMid meet" version="1.0"><defs><clipPath id="3169df77b6"><path d="M 21.484375 21.484375 L 1478.734375 21.484375 L 1478.734375 1478.734375 L 21.484375 1478.734375 Z M 21.484375 21.484375 " clip-rule="nonzero"/></clipPath></defs><g clip-path="url(#3169df77b6)"><path fill="#64ffda" d="M 750.179688 1478.839844 C 348.371094 1478.839844 21.484375 1151.953125 21.484375 750.179688 C 21.484375 348.40625 348.371094 21.484375 750.179688 21.484375 C 1151.988281 21.484375 1478.839844 348.371094 1478.839844 750.179688 C 1478.839844 1151.988281 1151.953125 1478.839844 750.179688 1478.839844 Z M 750.179688 35.789062 C 356.273438 35.789062 35.789062 356.273438 35.789062 750.179688 C 35.789062 1144.085938 356.273438 1464.535156 750.179688 1464.535156 C 1144.085938 1464.535156 1464.535156 1144.085938 1464.535156 750.179688 C 1464.535156 356.273438 1144.085938 35.789062 750.179688 35.789062 Z M 750.179688 1331.613281 C 429.550781 1331.613281 168.746094 1070.773438 168.746094 750.179688 C 168.746094 429.585938 429.550781 168.746094 750.179688 168.746094 C 1070.808594 168.746094 1331.613281 429.550781 1331.613281 750.179688 C 1331.613281 1070.808594 1070.773438 1331.613281 750.179688 1331.613281 Z M 750.179688 183.050781 C 437.453125 183.050781 183.050781 437.453125 183.050781 750.179688 C 183.050781 1062.90625 437.453125 1317.308594 750.179688 1317.308594 C 1062.90625 1317.308594 1317.308594 1062.871094 1317.308594 750.179688 C 1317.308594 437.488281 1062.871094 183.050781 750.179688 183.050781 Z M 750.179688 1184.351562 C 743.074219 1184.351562 735.972656 1184.175781 728.875 1183.828125 C 721.777344 1183.480469 714.691406 1182.960938 707.617188 1182.261719 C 700.546875 1181.566406 693.496094 1180.699219 686.464844 1179.65625 C 679.4375 1178.613281 672.4375 1177.398438 665.464844 1176.015625 C 658.496094 1174.628906 651.566406 1173.070312 644.671875 1171.347656 C 637.777344 1169.621094 630.929688 1167.726562 624.128906 1165.664062 C 617.328125 1163.601562 610.585938 1161.371094 603.894531 1158.980469 C 597.203125 1156.585938 590.574219 1154.027344 584.007812 1151.308594 C 577.441406 1148.589844 570.945312 1145.710938 564.523438 1142.675781 C 558.097656 1139.636719 551.753906 1136.441406 545.484375 1133.09375 C 539.21875 1129.742188 533.035156 1126.242188 526.941406 1122.589844 C 520.84375 1118.9375 514.84375 1115.136719 508.933594 1111.1875 C 503.023438 1107.242188 497.214844 1103.152344 491.507812 1098.917969 C 485.800781 1094.683594 480.199219 1090.3125 474.707031 1085.804688 C 469.210938 1081.296875 463.832031 1076.660156 458.566406 1071.886719 C 453.300781 1067.113281 448.15625 1062.214844 443.128906 1057.191406 C 438.105469 1052.167969 433.207031 1047.023438 428.433594 1041.757812 C 423.660156 1036.492188 419.019531 1031.113281 414.511719 1025.617188 C 410.003906 1020.125 405.632812 1014.527344 401.398438 1008.816406 C 397.164062 1003.109375 393.074219 997.300781 389.125 991.394531 C 385.175781 985.484375 381.375 979.484375 377.722656 973.386719 C 374.070312 967.292969 370.566406 961.113281 367.21875 954.84375 C 363.867188 948.578125 360.671875 942.230469 357.632812 935.808594 C 354.59375 929.382812 351.714844 922.890625 348.996094 916.324219 C 346.277344 909.757812 343.71875 903.128906 341.324219 896.441406 C 338.929688 889.75 336.703125 883.003906 334.636719 876.203125 C 332.574219 869.402344 330.679688 862.554688 328.953125 855.664062 C 327.226562 848.769531 325.667969 841.835938 324.28125 834.867188 C 322.898438 827.898438 321.683594 820.898438 320.640625 813.871094 C 319.597656 806.839844 318.726562 799.789062 318.027344 792.71875 C 317.332031 785.644531 316.808594 778.558594 316.460938 771.460938 C 316.113281 764.363281 315.9375 757.261719 315.9375 750.15625 C 315.9375 743.050781 316.109375 735.945312 316.460938 728.847656 C 316.808594 721.75 317.332031 714.667969 318.027344 707.59375 C 318.722656 700.523438 319.59375 693.472656 320.636719 686.441406 C 321.679688 679.414062 322.890625 672.414062 324.277344 665.441406 C 325.664062 658.472656 327.222656 651.542969 328.949219 644.648438 C 330.675781 637.753906 332.570312 630.90625 334.632812 624.105469 C 336.695312 617.308594 338.921875 610.5625 341.316406 603.871094 C 343.710938 597.179688 346.265625 590.550781 348.988281 583.984375 C 351.707031 577.421875 354.585938 570.925781 357.625 564.5 C 360.660156 558.078125 363.855469 551.730469 367.207031 545.464844 C 370.554688 539.195312 374.058594 533.015625 377.710938 526.921875 C 381.363281 520.824219 385.164062 514.824219 389.113281 508.914062 C 393.058594 503.003906 397.152344 497.195312 401.382812 491.488281 C 405.617188 485.78125 409.988281 480.179688 414.496094 474.6875 C 419.003906 469.195312 423.644531 463.8125 428.417969 458.550781 C 433.191406 453.285156 438.089844 448.136719 443.113281 443.113281 C 448.136719 438.089844 453.285156 433.191406 458.550781 428.417969 C 463.816406 423.644531 469.195312 419.003906 474.6875 414.496094 C 480.179688 409.988281 485.78125 405.617188 491.488281 401.382812 C 497.195312 397.152344 503.003906 393.058594 508.914062 389.113281 C 514.824219 385.164062 520.824219 381.363281 526.921875 377.710938 C 533.015625 374.058594 539.195312 370.554688 545.464844 367.207031 C 551.730469 363.855469 558.078125 360.660156 564.5 357.625 C 570.925781 354.585938 577.421875 351.707031 583.984375 348.988281 C 590.550781 346.265625 597.179688 343.710938 603.871094 341.316406 C 610.5625 338.921875 617.308594 336.695312 624.109375 334.632812 C 630.90625 332.570312 637.753906 330.675781 644.648438 328.949219 C 651.542969 327.222656 658.472656 325.664062 665.441406 324.277344 C 672.414062 322.890625 679.414062 321.679688 686.441406 320.636719 C 693.472656 319.59375 700.523438 318.722656 707.59375 318.027344 C 714.667969 317.332031 721.75 316.808594 728.851562 316.460938 C 735.949219 316.109375 743.050781 315.9375 750.15625 315.9375 C 757.261719 315.9375 764.363281 316.113281 771.460938 316.460938 C 778.558594 316.808594 785.644531 317.332031 792.71875 318.027344 C 799.789062 318.726562 806.839844 319.597656 813.871094 320.640625 C 820.898438 321.683594 827.898438 322.898438 834.867188 324.28125 C 841.839844 325.667969 848.769531 327.226562 855.664062 328.953125 C 862.554688 330.679688 869.402344 332.574219 876.203125 334.636719 C 883.003906 336.703125 889.75 338.929688 896.441406 341.324219 C 903.132812 343.71875 909.757812 346.277344 916.324219 348.996094 C 922.890625 351.714844 929.382812 354.59375 935.808594 357.632812 C 942.230469 360.671875 948.578125 363.867188 954.84375 367.214844 C 961.113281 370.566406 967.292969 374.070312 973.386719 377.722656 C 979.484375 381.375 985.484375 385.175781 991.394531 389.125 C 997.300781 393.074219 1003.109375 397.164062 1008.816406 401.398438 C 1014.527344 405.632812 1020.125 410.003906 1025.621094 414.511719 C 1031.113281 419.019531 1036.492188 423.660156 1041.757812 428.433594 C 1047.023438 433.207031 1052.167969 438.105469 1057.191406 443.128906 C 1062.214844 448.15625 1067.113281 453.300781 1071.886719 458.566406 C 1076.660156 463.832031 1081.296875 469.210938 1085.804688 474.707031 C 1090.316406 480.199219 1094.683594 485.800781 1098.917969 491.507812 C 1103.152344 497.214844 1107.242188 503.023438 1111.1875 508.933594 C 1115.136719 514.84375 1118.9375 520.84375 1122.589844 526.941406 C 1126.242188 533.035156 1129.746094 539.21875 1133.09375 545.484375 C 1136.441406 551.753906 1139.636719 558.097656 1142.675781 564.523438 C 1145.710938 570.945312 1148.589844 577.441406 1151.308594 584.007812 C 1154.03125 590.574219 1156.585938 597.203125 1158.980469 603.894531 C 1161.371094 610.582031 1163.601562 617.328125 1165.664062 624.128906 C 1167.726562 630.929688 1169.621094 637.777344 1171.347656 644.671875 C 1173.074219 651.566406 1174.628906 658.496094 1176.015625 665.464844 C 1177.398438 672.4375 1178.613281 679.4375 1179.65625 686.464844 C 1180.699219 693.496094 1181.566406 700.546875 1182.261719 707.617188 C 1182.960938 714.691406 1183.480469 721.777344 1183.828125 728.875 C 1184.175781 735.972656 1184.351562 743.074219 1184.351562 750.179688 C 1184.34375 757.28125 1184.160156 764.382812 1183.804688 771.476562 C 1183.449219 778.570312 1182.917969 785.652344 1182.214844 792.71875 C 1181.511719 799.789062 1180.636719 806.835938 1179.585938 813.859375 C 1178.539062 820.886719 1177.316406 827.882812 1175.925781 834.847656 C 1174.535156 841.8125 1172.972656 848.742188 1171.242188 855.628906 C 1169.507812 862.519531 1167.609375 869.359375 1165.542969 876.15625 C 1163.476562 882.953125 1161.246094 889.695312 1158.847656 896.378906 C 1156.449219 903.066406 1153.890625 909.691406 1151.167969 916.253906 C 1148.445312 922.8125 1145.566406 929.304688 1142.523438 935.722656 C 1139.484375 942.144531 1136.289062 948.484375 1132.9375 954.746094 C 1129.585938 961.011719 1126.082031 967.1875 1122.429688 973.277344 C 1118.773438 979.371094 1114.972656 985.367188 1111.027344 991.273438 C 1107.078125 997.179688 1102.988281 1002.984375 1098.753906 1008.6875 C 1094.523438 1014.394531 1090.152344 1019.988281 1085.644531 1025.480469 C 1081.136719 1030.972656 1076.5 1036.347656 1071.730469 1041.609375 C 1066.957031 1046.871094 1062.0625 1052.015625 1057.039062 1057.039062 C 1052.015625 1062.0625 1046.875 1066.957031 1041.609375 1071.730469 C 1036.347656 1076.5 1030.972656 1081.136719 1025.480469 1085.644531 C 1019.988281 1090.152344 1014.394531 1094.523438 1008.6875 1098.753906 C 1002.984375 1102.988281 997.179688 1107.078125 991.273438 1111.027344 C 985.367188 1114.972656 979.371094 1118.773438 973.277344 1122.429688 C 967.1875 1126.082031 961.011719 1129.585938 954.746094 1132.9375 C 948.484375 1136.289062 942.144531 1139.484375 935.722656 1142.523438 C 929.304688 1145.566406 922.8125 1148.445312 916.253906 1151.167969 C 909.691406 1153.890625 903.066406 1156.449219 896.378906 1158.847656 C 889.695312 1161.246094 882.953125 1163.476562 876.15625 1165.542969 C 869.359375 1167.609375 862.519531 1169.507812 855.628906 1171.242188 C 848.742188 1172.972656 841.8125 1174.535156 834.847656 1175.925781 C 827.882812 1177.316406 820.886719 1178.539062 813.859375 1179.585938 C 806.835938 1180.636719 799.789062 1181.511719 792.71875 1182.214844 C 785.652344 1182.917969 778.570312 1183.449219 771.476562 1183.804688 C 764.382812 1184.160156 757.28125 1184.34375 750.179688 1184.351562 Z M 750.179688 330.277344 C 743.308594 330.277344 736.441406 330.445312 729.574219 330.78125 C 722.710938 331.117188 715.859375 331.621094 709.019531 332.296875 C 702.183594 332.96875 695.363281 333.808594 688.566406 334.816406 C 681.769531 335.824219 675 337 668.257812 338.339844 C 661.519531 339.679688 654.816406 341.183594 648.148438 342.851562 C 641.484375 344.523438 634.859375 346.355469 628.285156 348.347656 C 621.707031 350.34375 615.183594 352.496094 608.714844 354.8125 C 602.242188 357.125 595.832031 359.597656 589.484375 362.226562 C 583.136719 364.855469 576.855469 367.640625 570.640625 370.578125 C 564.429688 373.515625 558.292969 376.605469 552.230469 379.84375 C 546.171875 383.082031 540.191406 386.46875 534.296875 390 C 528.402344 393.535156 522.597656 397.207031 516.882812 401.027344 C 511.171875 404.84375 505.554688 408.800781 500.03125 412.890625 C 494.511719 416.984375 489.097656 421.210938 483.785156 425.570312 C 478.472656 429.929688 473.269531 434.417969 468.175781 439.03125 C 463.085938 443.648438 458.109375 448.382812 453.25 453.242188 C 448.390625 458.101562 443.652344 463.078125 439.035156 468.167969 C 434.421875 473.261719 429.933594 478.460938 425.574219 483.773438 C 421.214844 489.085938 416.984375 494.5 412.890625 500.019531 C 408.796875 505.539062 404.839844 511.15625 401.023438 516.871094 C 397.203125 522.585938 393.527344 528.386719 389.996094 534.28125 C 386.460938 540.175781 383.074219 546.152344 379.835938 552.214844 C 376.597656 558.273438 373.507812 564.410156 370.566406 570.625 C 367.628906 576.835938 364.84375 583.117188 362.214844 589.464844 C 359.585938 595.8125 357.113281 602.222656 354.796875 608.695312 C 352.480469 615.164062 350.324219 621.6875 348.328125 628.261719 C 346.335938 634.839844 344.5 641.460938 342.832031 648.125 C 341.160156 654.792969 339.65625 661.496094 338.316406 668.234375 C 336.972656 674.976562 335.796875 681.746094 334.789062 688.542969 C 333.78125 695.339844 332.941406 702.160156 332.265625 708.996094 C 331.589844 715.835938 331.085938 722.6875 330.75 729.550781 C 330.410156 736.414062 330.242188 743.285156 330.242188 750.15625 C 330.242188 757.027344 330.410156 763.894531 330.746094 770.757812 C 331.082031 777.625 331.585938 784.476562 332.261719 791.3125 C 332.933594 798.152344 333.773438 804.972656 334.78125 811.769531 C 335.789062 818.566406 336.964844 825.335938 338.304688 832.078125 C 339.644531 838.816406 341.152344 845.519531 342.820312 852.1875 C 344.488281 858.851562 346.320312 865.472656 348.316406 872.050781 C 350.308594 878.625 352.464844 885.148438 354.78125 891.621094 C 357.09375 898.089844 359.566406 904.5 362.195312 910.851562 C 364.824219 917.199219 367.609375 923.480469 370.546875 929.691406 C 373.484375 935.90625 376.574219 942.042969 379.8125 948.101562 C 383.050781 954.164062 386.4375 960.140625 389.972656 966.035156 C 393.503906 971.929688 397.179688 977.734375 400.996094 983.449219 C 404.816406 989.164062 408.769531 994.78125 412.863281 1000.300781 C 416.957031 1005.820312 421.183594 1011.234375 425.542969 1016.546875 C 429.902344 1021.859375 434.390625 1027.0625 439.003906 1032.15625 C 443.617188 1037.246094 448.355469 1042.222656 453.214844 1047.082031 C 458.074219 1051.941406 463.050781 1056.679688 468.140625 1061.296875 C 473.234375 1065.910156 478.433594 1070.398438 483.746094 1074.757812 C 489.058594 1079.117188 494.476562 1083.34375 499.996094 1087.4375 C 505.515625 1091.53125 511.132812 1095.488281 516.84375 1099.304688 C 522.558594 1103.125 528.363281 1106.800781 534.257812 1110.332031 C 540.152344 1113.867188 546.128906 1117.253906 552.1875 1120.492188 C 558.25 1123.734375 564.386719 1126.820312 570.597656 1129.761719 C 576.8125 1132.699219 583.089844 1135.484375 589.441406 1138.113281 C 595.789062 1140.742188 602.199219 1143.214844 608.667969 1145.53125 C 615.140625 1147.847656 621.664062 1150.003906 628.238281 1151.996094 C 634.816406 1153.992188 641.4375 1155.824219 648.101562 1157.496094 C 654.769531 1159.164062 661.472656 1160.671875 668.210938 1162.011719 C 674.953125 1163.351562 681.71875 1164.527344 688.519531 1165.535156 C 695.316406 1166.542969 702.132812 1167.386719 708.972656 1168.058594 C 715.8125 1168.734375 722.664062 1169.238281 729.527344 1169.574219 C 736.390625 1169.914062 743.257812 1170.082031 750.132812 1170.082031 C 757.003906 1170.082031 763.871094 1169.914062 770.734375 1169.578125 C 777.601562 1169.238281 784.453125 1168.734375 791.289062 1168.0625 C 798.128906 1167.386719 804.949219 1166.546875 811.746094 1165.539062 C 818.542969 1164.53125 825.3125 1163.355469 832.050781 1162.015625 C 838.792969 1160.675781 845.496094 1159.171875 852.160156 1157.5 C 858.828125 1155.832031 865.449219 1154 872.027344 1152.003906 C 878.601562 1150.007812 885.125 1147.855469 891.597656 1145.539062 C 898.066406 1143.222656 904.476562 1140.753906 910.824219 1138.121094 C 917.175781 1135.492188 923.457031 1132.707031 929.667969 1129.769531 C 935.878906 1126.832031 942.015625 1123.742188 948.078125 1120.503906 C 954.136719 1117.265625 960.117188 1113.878906 966.011719 1110.347656 C 971.90625 1106.8125 977.707031 1103.136719 983.421875 1099.320312 C 989.136719 1095.503906 994.753906 1091.546875 1000.273438 1087.453125 C 1005.792969 1083.359375 1011.210938 1079.132812 1016.523438 1074.773438 C 1021.835938 1070.414062 1027.035156 1065.925781 1032.128906 1061.3125 C 1037.21875 1056.695312 1042.195312 1051.960938 1047.054688 1047.101562 C 1051.914062 1042.242188 1056.652344 1037.265625 1061.265625 1032.171875 C 1065.882812 1027.082031 1070.371094 1021.878906 1074.730469 1016.566406 C 1079.089844 1011.253906 1083.316406 1005.839844 1087.410156 1000.320312 C 1091.503906 994.800781 1095.460938 989.183594 1099.277344 983.46875 C 1103.09375 977.753906 1106.769531 971.949219 1110.304688 966.054688 C 1113.835938 960.160156 1117.222656 954.183594 1120.464844 948.125 C 1123.703125 942.0625 1126.792969 935.925781 1129.730469 929.714844 C 1132.667969 923.5 1135.453125 917.222656 1138.082031 910.871094 C 1140.710938 904.523438 1143.183594 898.113281 1145.5 891.644531 C 1147.816406 885.171875 1149.96875 878.648438 1151.964844 872.074219 C 1153.960938 865.496094 1155.792969 858.875 1157.460938 852.210938 C 1159.132812 845.542969 1160.636719 838.839844 1161.976562 832.101562 C 1163.320312 825.359375 1164.492188 818.589844 1165.5 811.792969 C 1166.511719 804.996094 1167.351562 798.175781 1168.023438 791.339844 C 1168.699219 784.5 1169.203125 777.648438 1169.539062 770.785156 C 1169.878906 763.917969 1170.046875 757.050781 1170.046875 750.179688 C 1170.039062 743.308594 1169.863281 736.445312 1169.519531 729.582031 C 1169.175781 722.722656 1168.664062 715.875 1167.984375 709.039062 C 1167.304688 702.203125 1166.457031 695.386719 1165.441406 688.59375 C 1164.429688 681.800781 1163.246094 675.035156 1161.902344 668.296875 C 1160.558594 661.5625 1159.046875 654.863281 1157.371094 648.199219 C 1155.699219 641.535156 1153.863281 634.917969 1151.863281 628.347656 C 1149.863281 621.773438 1147.707031 615.253906 1145.386719 608.789062 C 1143.070312 602.320312 1140.59375 595.914062 1137.960938 589.570312 C 1135.332031 583.226562 1132.542969 576.949219 1129.605469 570.738281 C 1126.664062 564.53125 1123.574219 558.398438 1120.332031 552.339844 C 1117.09375 546.285156 1113.707031 540.308594 1110.171875 534.417969 C 1106.640625 528.527344 1102.964844 522.726562 1099.144531 517.015625 C 1095.328125 511.304688 1091.371094 505.691406 1087.277344 500.171875 C 1083.183594 494.65625 1078.960938 489.242188 1074.601562 483.933594 C 1070.242188 478.625 1065.757812 473.421875 1061.144531 468.332031 C 1056.527344 463.242188 1051.792969 458.269531 1046.9375 453.414062 C 1042.078125 448.554688 1037.105469 443.820312 1032.015625 439.203125 C 1026.925781 434.589844 1021.726562 430.105469 1016.417969 425.746094 C 1011.109375 421.386719 1005.695312 417.160156 1000.179688 413.066406 C 994.664062 408.972656 989.046875 405.015625 983.339844 401.199219 C 977.628906 397.378906 971.828125 393.703125 965.9375 390.167969 C 960.046875 386.636719 954.070312 383.25 948.015625 380.007812 C 941.957031 376.765625 935.824219 373.675781 929.617188 370.734375 C 923.40625 367.792969 917.132812 365.007812 910.785156 362.375 C 904.441406 359.742188 898.035156 357.265625 891.570312 354.949219 C 885.101562 352.628906 878.582031 350.46875 872.011719 348.46875 C 865.4375 346.472656 858.820312 344.632812 852.160156 342.960938 C 845.496094 341.285156 838.796875 339.773438 832.0625 338.429688 C 825.324219 337.082031 818.558594 335.902344 811.765625 334.886719 C 804.972656 333.871094 798.15625 333.023438 791.320312 332.34375 C 784.484375 331.664062 777.636719 331.152344 770.777344 330.804688 C 763.914062 330.460938 757.050781 330.285156 750.179688 330.277344 Z M 750.179688 1037.089844 C 745.484375 1037.089844 740.789062 1036.972656 736.097656 1036.746094 C 731.410156 1036.515625 726.726562 1036.167969 722.050781 1035.710938 C 717.378906 1035.25 712.71875 1034.675781 708.074219 1033.988281 C 703.429688 1033.300781 698.800781 1032.496094 694.195312 1031.582031 C 689.589844 1030.664062 685.007812 1029.636719 680.453125 1028.496094 C 675.898438 1027.355469 671.371094 1026.105469 666.878906 1024.742188 C 662.382812 1023.378906 657.925781 1021.90625 653.503906 1020.324219 C 649.082031 1018.742188 644.703125 1017.054688 640.363281 1015.257812 C 636.023438 1013.460938 631.730469 1011.558594 627.484375 1009.550781 C 623.242188 1007.542969 619.046875 1005.433594 614.90625 1003.21875 C 610.761719 1001.007812 606.675781 998.691406 602.648438 996.277344 C 598.621094 993.863281 594.652344 991.351562 590.75 988.746094 C 586.84375 986.136719 583.003906 983.433594 579.234375 980.636719 C 575.460938 977.839844 571.757812 974.949219 568.128906 971.972656 C 564.496094 968.992188 560.941406 965.925781 557.460938 962.773438 C 553.980469 959.617188 550.582031 956.382812 547.261719 953.0625 C 543.941406 949.742188 540.703125 946.339844 537.546875 942.859375 C 534.394531 939.382812 531.328125 935.828125 528.347656 932.195312 C 525.367188 928.566406 522.480469 924.867188 519.679688 921.09375 C 516.882812 917.320312 514.179688 913.484375 511.570312 909.578125 C 508.960938 905.675781 506.449219 901.707031 504.035156 897.679688 C 501.621094 893.652344 499.304688 889.566406 497.089844 885.425781 C 494.878906 881.285156 492.765625 877.089844 490.757812 872.84375 C 488.75 868.601562 486.847656 864.308594 485.050781 859.96875 C 483.25 855.628906 481.5625 851.25 479.980469 846.828125 C 478.398438 842.40625 476.925781 837.949219 475.558594 833.457031 C 474.195312 828.960938 472.945312 824.4375 471.804688 819.882812 C 470.660156 815.324219 469.632812 810.746094 468.714844 806.136719 C 467.800781 801.53125 466.996094 796.90625 466.308594 792.261719 C 465.617188 787.617188 465.042969 782.957031 464.582031 778.28125 C 464.121094 773.609375 463.777344 768.925781 463.546875 764.234375 C 463.316406 759.546875 463.199219 754.851562 463.199219 750.15625 C 463.199219 745.460938 463.316406 740.765625 463.546875 736.074219 C 463.773438 731.386719 464.121094 726.703125 464.582031 722.027344 C 465.039062 717.355469 465.617188 712.695312 466.304688 708.050781 C 466.992188 703.40625 467.796875 698.777344 468.710938 694.171875 C 469.628906 689.566406 470.65625 684.984375 471.796875 680.429688 C 472.9375 675.875 474.191406 671.351562 475.554688 666.855469 C 476.917969 662.363281 478.390625 657.902344 479.972656 653.480469 C 481.554688 649.058594 483.242188 644.679688 485.039062 640.339844 C 486.835938 636 488.738281 631.710938 490.746094 627.464844 C 492.753906 623.21875 494.867188 619.023438 497.078125 614.882812 C 499.292969 610.742188 501.609375 606.65625 504.023438 602.628906 C 506.4375 598.601562 508.949219 594.632812 511.558594 590.730469 C 514.167969 586.824219 516.871094 582.984375 519.667969 579.214844 C 522.464844 575.441406 525.351562 571.738281 528.332031 568.109375 C 531.3125 564.480469 534.378906 560.925781 537.53125 557.445312 C 540.6875 553.964844 543.921875 550.566406 547.242188 547.242188 C 550.566406 543.921875 553.964844 540.6875 557.445312 537.53125 C 560.925781 534.378906 564.480469 531.3125 568.109375 528.332031 C 571.738281 525.351562 575.441406 522.464844 579.214844 519.667969 C 582.984375 516.871094 586.824219 514.167969 590.730469 511.558594 C 594.632812 508.949219 598.601562 506.4375 602.628906 504.023438 C 606.65625 501.609375 610.742188 499.292969 614.882812 497.078125 C 619.023438 494.867188 623.21875 492.753906 627.464844 490.746094 C 631.710938 488.738281 636 486.835938 640.339844 485.039062 C 644.679688 483.242188 649.058594 481.554688 653.480469 479.972656 C 657.902344 478.390625 662.363281 476.917969 666.855469 475.554688 C 671.351562 474.191406 675.875 472.9375 680.429688 471.796875 C 684.984375 470.65625 689.566406 469.628906 694.171875 468.710938 C 698.777344 467.796875 703.40625 466.992188 708.050781 466.304688 C 712.695312 465.613281 717.355469 465.039062 722.027344 464.582031 C 726.703125 464.121094 731.386719 463.773438 736.074219 463.542969 C 740.765625 463.316406 745.460938 463.199219 750.15625 463.199219 C 754.851562 463.199219 759.546875 463.316406 764.238281 463.546875 C 768.925781 463.777344 773.609375 464.121094 778.28125 464.582031 C 782.957031 465.042969 787.617188 465.617188 792.261719 466.308594 C 796.90625 466.996094 801.53125 467.800781 806.136719 468.714844 C 810.746094 469.632812 815.324219 470.660156 819.882812 471.804688 C 824.4375 472.945312 828.960938 474.195312 833.457031 475.558594 C 837.949219 476.925781 842.40625 478.398438 846.828125 479.980469 C 851.25 481.5625 855.628906 483.25 859.96875 485.050781 C 864.308594 486.847656 868.601562 488.75 872.84375 490.757812 C 877.089844 492.765625 881.285156 494.875 885.425781 497.089844 C 889.566406 499.304688 893.652344 501.621094 897.679688 504.035156 C 901.707031 506.449219 905.675781 508.960938 909.578125 511.570312 C 913.484375 514.179688 917.320312 516.882812 921.09375 519.679688 C 924.867188 522.480469 928.566406 525.367188 932.195312 528.347656 C 935.828125 531.328125 939.382812 534.394531 942.859375 537.546875 C 946.339844 540.703125 949.742188 543.941406 953.0625 547.261719 C 956.382812 550.582031 959.617188 553.980469 962.773438 557.460938 C 965.925781 560.941406 968.992188 564.496094 971.972656 568.128906 C 974.949219 571.757812 977.839844 575.460938 980.636719 579.234375 C 983.433594 583.003906 986.136719 586.84375 988.746094 590.75 C 991.351562 594.652344 993.863281 598.621094 996.277344 602.648438 C 998.691406 606.675781 1001.007812 610.761719 1003.21875 614.90625 C 1005.433594 619.046875 1007.542969 623.242188 1009.550781 627.484375 C 1011.558594 631.730469 1013.460938 636.023438 1015.257812 640.363281 C 1017.054688 644.703125 1018.742188 649.082031 1020.324219 653.503906 C 1021.90625 657.925781 1023.378906 662.382812 1024.742188 666.878906 C 1026.105469 671.371094 1027.355469 675.898438 1028.496094 680.453125 C 1029.636719 685.007812 1030.664062 689.589844 1031.582031 694.195312 C 1032.496094 698.800781 1033.300781 703.429688 1033.988281 708.074219 C 1034.675781 712.71875 1035.25 717.378906 1035.710938 722.050781 C 1036.167969 726.726562 1036.515625 731.410156 1036.746094 736.097656 C 1036.972656 740.789062 1037.089844 745.484375 1037.089844 750.179688 C 1037.082031 754.875 1036.960938 759.566406 1036.726562 764.253906 C 1036.492188 768.941406 1036.140625 773.621094 1035.675781 778.292969 C 1035.210938 782.960938 1034.632812 787.621094 1033.941406 792.261719 C 1033.246094 796.90625 1032.441406 801.527344 1031.523438 806.128906 C 1030.601562 810.734375 1029.570312 815.3125 1028.425781 819.863281 C 1027.28125 824.417969 1026.027344 828.9375 1024.660156 833.429688 C 1023.296875 837.917969 1021.820312 842.375 1020.238281 846.792969 C 1018.652344 851.210938 1016.960938 855.589844 1015.164062 859.925781 C 1013.363281 864.261719 1011.460938 868.550781 1009.449219 872.792969 C 1007.441406 877.035156 1005.328125 881.226562 1003.117188 885.363281 C 1000.902344 889.503906 998.585938 893.585938 996.171875 897.609375 C 993.757812 901.636719 991.246094 905.597656 988.636719 909.5 C 986.027344 913.402344 983.324219 917.238281 980.527344 921.007812 C 977.730469 924.777344 974.84375 928.476562 971.863281 932.105469 C 968.886719 935.734375 965.820312 939.285156 962.667969 942.765625 C 959.515625 946.242188 956.28125 949.640625 952.960938 952.960938 C 949.640625 956.28125 946.242188 959.515625 942.765625 962.667969 C 939.285156 965.820312 935.734375 968.886719 932.105469 971.863281 C 928.476562 974.84375 924.777344 977.730469 921.007812 980.527344 C 917.238281 983.324219 913.402344 986.027344 909.5 988.636719 C 905.597656 991.246094 901.636719 993.757812 897.609375 996.171875 C 893.585938 998.585938 889.503906 1000.902344 885.363281 1003.117188 C 881.226562 1005.328125 877.035156 1007.441406 872.792969 1009.449219 C 868.550781 1011.460938 864.261719 1013.363281 859.925781 1015.164062 C 855.589844 1016.960938 851.210938 1018.652344 846.792969 1020.238281 C 842.375 1021.820312 837.917969 1023.296875 833.429688 1024.660156 C 828.9375 1026.027344 824.417969 1027.28125 819.863281 1028.425781 C 815.3125 1029.570312 810.734375 1030.601562 806.128906 1031.523438 C 801.527344 1032.441406 796.90625 1033.246094 792.261719 1033.941406 C 787.621094 1034.632812 782.960938 1035.210938 778.292969 1035.675781 C 773.621094 1036.140625 768.941406 1036.492188 764.253906 1036.726562 C 759.566406 1036.960938 754.875 1037.082031 750.179688 1037.089844 Z M 750.179688 477.539062 C 745.71875 477.539062 741.257812 477.648438 736.800781 477.867188 C 732.34375 478.085938 727.894531 478.414062 723.457031 478.847656 C 719.015625 479.285156 714.585938 479.832031 710.171875 480.484375 C 705.761719 481.140625 701.363281 481.902344 696.988281 482.773438 C 692.613281 483.640625 688.257812 484.617188 683.929688 485.703125 C 679.601562 486.785156 675.304688 487.976562 671.03125 489.269531 C 666.761719 490.566406 662.527344 491.964844 658.324219 493.464844 C 654.125 494.96875 649.960938 496.574219 645.839844 498.28125 C 641.71875 499.988281 637.640625 501.796875 633.605469 503.703125 C 629.570312 505.609375 625.585938 507.613281 621.652344 509.71875 C 617.714844 511.820312 613.832031 514.019531 610.007812 516.3125 C 606.179688 518.605469 602.410156 520.992188 598.699219 523.46875 C 594.988281 525.949219 591.34375 528.515625 587.757812 531.175781 C 584.171875 533.832031 580.65625 536.578125 577.207031 539.40625 C 573.757812 542.238281 570.378906 545.152344 567.074219 548.148438 C 563.765625 551.144531 560.535156 554.21875 557.378906 557.375 C 554.222656 560.527344 551.148438 563.757812 548.152344 567.0625 C 545.152344 570.371094 542.238281 573.746094 539.410156 577.195312 C 536.578125 580.644531 533.832031 584.160156 531.175781 587.746094 C 528.515625 591.328125 525.949219 594.976562 523.46875 598.6875 C 520.988281 602.394531 518.601562 606.164062 516.308594 609.992188 C 514.011719 613.816406 511.8125 617.699219 509.710938 621.632812 C 507.605469 625.570312 505.601562 629.554688 503.691406 633.585938 C 501.785156 637.621094 499.976562 641.699219 498.269531 645.820312 C 496.558594 649.941406 494.953125 654.105469 493.449219 658.304688 C 491.945312 662.507812 490.546875 666.742188 489.25 671.011719 C 487.957031 675.28125 486.765625 679.582031 485.679688 683.910156 C 484.597656 688.238281 483.617188 692.589844 482.746094 696.964844 C 481.875 701.34375 481.113281 705.738281 480.457031 710.152344 C 479.804688 714.5625 479.257812 718.992188 478.820312 723.433594 C 478.382812 727.871094 478.054688 732.320312 477.832031 736.777344 C 477.613281 741.234375 477.503906 745.695312 477.503906 750.15625 C 477.503906 754.617188 477.613281 759.078125 477.832031 763.535156 C 478.050781 767.992188 478.378906 772.441406 478.816406 776.878906 C 479.25 781.320312 479.796875 785.746094 480.453125 790.160156 C 481.105469 794.574219 481.867188 798.972656 482.738281 803.347656 C 483.609375 807.722656 484.585938 812.074219 485.667969 816.40625 C 486.753906 820.734375 487.941406 825.03125 489.238281 829.300781 C 490.53125 833.574219 491.929688 837.808594 493.433594 842.007812 C 494.9375 846.210938 496.542969 850.371094 498.25 854.496094 C 499.957031 858.617188 501.765625 862.695312 503.671875 866.730469 C 505.578125 870.761719 507.585938 874.75 509.6875 878.683594 C 511.789062 882.617188 513.988281 886.5 516.28125 890.328125 C 518.578125 894.15625 520.960938 897.925781 523.441406 901.632812 C 525.921875 905.34375 528.488281 908.992188 531.144531 912.574219 C 533.804688 916.160156 536.546875 919.675781 539.378906 923.125 C 542.210938 926.574219 545.121094 929.953125 548.117188 933.261719 C 551.117188 936.566406 554.191406 939.796875 557.347656 942.953125 C 560.5 946.109375 563.730469 949.183594 567.039062 952.179688 C 570.34375 955.175781 573.722656 958.089844 577.167969 960.921875 C 580.617188 963.753906 584.136719 966.496094 587.71875 969.15625 C 591.304688 971.816406 594.949219 974.382812 598.660156 976.863281 C 602.371094 979.339844 606.136719 981.726562 609.964844 984.023438 C 613.792969 986.316406 617.671875 988.515625 621.609375 990.621094 C 625.542969 992.722656 629.527344 994.730469 633.5625 996.636719 C 637.59375 998.542969 641.671875 1000.351562 645.796875 1002.058594 C 649.917969 1003.769531 654.078125 1005.375 658.28125 1006.878906 C 662.480469 1008.382812 666.71875 1009.78125 670.988281 1011.074219 C 675.257812 1012.371094 679.554688 1013.5625 683.882812 1014.644531 C 688.210938 1015.730469 692.566406 1016.707031 696.941406 1017.578125 C 701.316406 1018.449219 705.710938 1019.210938 710.125 1019.867188 C 714.539062 1020.523438 718.96875 1021.066406 723.40625 1021.503906 C 727.847656 1021.941406 732.296875 1022.269531 736.753906 1022.492188 C 741.210938 1022.710938 745.671875 1022.820312 750.132812 1022.820312 C 754.59375 1022.820312 759.054688 1022.710938 763.511719 1022.492188 C 767.96875 1022.273438 772.414062 1021.945312 776.855469 1021.507812 C 781.296875 1021.070312 785.722656 1020.523438 790.136719 1019.871094 C 794.550781 1019.214844 798.945312 1018.453125 803.324219 1017.582031 C 807.699219 1016.710938 812.050781 1015.734375 816.378906 1014.652344 C 820.707031 1013.566406 825.007812 1012.378906 829.277344 1011.082031 C 833.546875 1009.789062 837.785156 1008.386719 841.984375 1006.886719 C 846.1875 1005.382812 850.347656 1003.777344 854.46875 1002.070312 C 858.59375 1000.363281 862.671875 998.554688 866.703125 996.648438 C 870.738281 994.738281 874.722656 992.734375 878.660156 990.628906 C 882.59375 988.527344 886.476562 986.328125 890.300781 984.035156 C 894.128906 981.742188 897.898438 979.355469 901.609375 976.875 C 905.320312 974.398438 908.964844 971.828125 912.550781 969.171875 C 916.132812 966.511719 919.652344 963.769531 923.101562 960.9375 C 926.550781 958.105469 929.925781 955.191406 933.234375 952.195312 C 936.539062 949.199219 939.769531 946.125 942.925781 942.96875 C 946.082031 939.8125 949.15625 936.582031 952.152344 933.277344 C 955.148438 929.972656 958.0625 926.59375 960.894531 923.144531 C 963.726562 919.695312 966.46875 916.179688 969.128906 912.59375 C 971.785156 909.011719 974.355469 905.363281 976.832031 901.652344 C 979.3125 897.945312 981.699219 894.175781 983.992188 890.347656 C 986.285156 886.519531 988.484375 882.640625 990.589844 878.703125 C 992.691406 874.769531 994.699219 870.785156 996.605469 866.75 C 998.515625 862.71875 1000.320312 858.640625 1002.027344 854.515625 C 1003.738281 850.394531 1005.34375 846.234375 1006.84375 842.03125 C 1008.347656 837.832031 1009.75 833.59375 1011.042969 829.324219 C 1012.339844 825.054688 1013.527344 820.757812 1014.613281 816.425781 C 1015.695312 812.097656 1016.675781 807.746094 1017.542969 803.371094 C 1018.414062 798.996094 1019.179688 794.597656 1019.832031 790.183594 C 1020.488281 785.773438 1021.035156 781.34375 1021.472656 776.902344 C 1021.910156 772.464844 1022.238281 768.015625 1022.457031 763.558594 C 1022.675781 759.101562 1022.785156 754.640625 1022.785156 750.179688 C 1022.777344 745.71875 1022.664062 741.261719 1022.441406 736.808594 C 1022.21875 732.351562 1021.886719 727.90625 1021.445312 723.46875 C 1021.003906 719.027344 1020.453125 714.605469 1019.796875 710.191406 C 1019.136719 705.78125 1018.371094 701.386719 1017.5 697.015625 C 1016.625 692.640625 1015.644531 688.289062 1014.558594 683.964844 C 1013.472656 679.640625 1012.28125 675.34375 1010.980469 671.074219 C 1009.683594 666.808594 1008.28125 662.574219 1006.777344 658.375 C 1005.273438 654.175781 1003.667969 650.015625 1001.957031 645.898438 C 1000.25 641.777344 998.441406 637.703125 996.53125 633.671875 C 994.621094 629.640625 992.617188 625.65625 990.511719 621.722656 C 988.40625 617.792969 986.207031 613.914062 983.914062 610.085938 C 981.621094 606.261719 979.234375 602.496094 976.753906 598.789062 C 974.277344 595.078125 971.707031 591.433594 969.050781 587.851562 C 966.394531 584.269531 963.648438 580.753906 960.820312 577.308594 C 957.988281 573.859375 955.078125 570.484375 952.082031 567.179688 C 949.085938 563.875 946.011719 560.644531 942.859375 557.492188 C 939.703125 554.335938 936.476562 551.261719 933.171875 548.265625 C 929.867188 545.269531 926.492188 542.355469 923.042969 539.527344 C 919.597656 536.695312 916.082031 533.953125 912.5 531.292969 C 908.917969 528.636719 905.273438 526.066406 901.566406 523.589844 C 897.859375 521.109375 894.089844 518.722656 890.265625 516.425781 C 886.441406 514.132812 882.5625 511.933594 878.628906 509.828125 C 874.699219 507.722656 870.714844 505.71875 866.683594 503.808594 C 862.652344 501.898438 858.578125 500.089844 854.460938 498.378906 C 850.339844 496.671875 846.179688 495.0625 841.980469 493.558594 C 837.78125 492.050781 833.550781 490.648438 829.28125 489.351562 C 825.015625 488.054688 820.71875 486.863281 816.394531 485.773438 C 812.066406 484.6875 807.71875 483.707031 803.34375 482.832031 C 798.96875 481.957031 794.578125 481.191406 790.167969 480.53125 C 785.753906 479.875 781.328125 479.324219 776.890625 478.882812 C 772.453125 478.441406 768.007812 478.105469 763.550781 477.882812 C 759.097656 477.660156 754.640625 477.546875 750.179688 477.539062 Z M 750.179688 889.859375 C 747.894531 889.859375 745.609375 889.804688 743.324219 889.691406 C 741.042969 889.582031 738.761719 889.414062 736.488281 889.1875 C 734.214844 888.964844 731.945312 888.683594 729.683594 888.347656 C 727.421875 888.015625 725.171875 887.621094 722.929688 887.175781 C 720.6875 886.730469 718.457031 886.230469 716.238281 885.675781 C 714.023438 885.121094 711.820312 884.511719 709.632812 883.847656 C 707.445312 883.183594 705.273438 882.464844 703.121094 881.695312 C 700.96875 880.925781 698.835938 880.101562 696.726562 879.226562 C 694.613281 878.351562 692.523438 877.425781 690.457031 876.449219 C 688.390625 875.472656 686.351562 874.445312 684.335938 873.367188 C 682.316406 872.289062 680.328125 871.164062 678.367188 869.988281 C 676.410156 868.8125 674.476562 867.589844 672.578125 866.320312 C 670.675781 865.050781 668.808594 863.734375 666.972656 862.371094 C 665.136719 861.011719 663.332031 859.605469 661.566406 858.15625 C 659.800781 856.703125 658.070312 855.210938 656.375 853.675781 C 654.679688 852.140625 653.027344 850.566406 651.410156 848.949219 C 649.792969 847.332031 648.21875 845.679688 646.683594 843.984375 C 645.148438 842.289062 643.65625 840.558594 642.203125 838.792969 C 640.753906 837.027344 639.347656 835.222656 637.988281 833.386719 C 636.625 831.550781 635.308594 829.683594 634.039062 827.78125 C 632.769531 825.882812 631.546875 823.949219 630.371094 821.988281 C 629.195312 820.03125 628.070312 818.042969 626.992188 816.023438 C 625.914062 814.007812 624.886719 811.96875 623.910156 809.902344 C 622.933594 807.835938 622.003906 805.746094 621.132812 803.632812 C 620.257812 801.519531 619.433594 799.390625 618.664062 797.238281 C 617.894531 795.085938 617.175781 792.914062 616.511719 790.726562 C 615.847656 788.539062 615.238281 786.335938 614.683594 784.121094 C 614.128906 781.902344 613.628906 779.671875 613.183594 777.429688 C 612.734375 775.1875 612.34375 772.9375 612.011719 770.675781 C 611.675781 768.414062 611.394531 766.144531 611.171875 763.871094 C 610.945312 761.597656 610.777344 759.316406 610.667969 757.035156 C 610.554688 754.75 610.5 752.464844 610.5 750.179688 C 610.5 747.894531 610.554688 745.609375 610.667969 743.324219 C 610.777344 741.042969 610.945312 738.761719 611.171875 736.488281 C 611.394531 734.214844 611.675781 731.945312 612.011719 729.683594 C 612.34375 727.421875 612.734375 725.171875 613.183594 722.929688 C 613.628906 720.6875 614.128906 718.457031 614.683594 716.238281 C 615.238281 714.023438 615.847656 711.820312 616.511719 709.632812 C 617.175781 707.445312 617.894531 705.273438 618.664062 703.121094 C 619.433594 700.96875 620.257812 698.835938 621.128906 696.726562 C 622.003906 694.613281 622.933594 692.523438 623.910156 690.457031 C 624.886719 688.390625 625.914062 686.351562 626.992188 684.335938 C 628.070312 682.316406 629.195312 680.328125 630.371094 678.367188 C 631.546875 676.410156 632.769531 674.476562 634.039062 672.578125 C 635.308594 670.675781 636.625 668.808594 637.988281 666.972656 C 639.347656 665.136719 640.753906 663.332031 642.203125 661.566406 C 643.65625 659.800781 645.148438 658.070312 646.683594 656.375 C 648.21875 654.679688 649.792969 653.027344 651.410156 651.410156 C 653.027344 649.792969 654.679688 648.21875 656.375 646.683594 C 658.070312 645.148438 659.800781 643.65625 661.566406 642.203125 C 663.332031 640.753906 665.136719 639.347656 666.972656 637.988281 C 668.808594 636.625 670.675781 635.308594 672.578125 634.039062 C 674.476562 632.769531 676.410156 631.546875 678.367188 630.371094 C 680.328125 629.195312 682.316406 628.070312 684.335938 626.992188 C 686.351562 625.914062 688.390625 624.886719 690.457031 623.910156 C 692.523438 622.933594 694.613281 622.003906 696.726562 621.128906 C 698.835938 620.257812 700.96875 619.433594 703.121094 618.664062 C 705.273438 617.894531 707.445312 617.175781 709.632812 616.511719 C 711.820312 615.847656 714.023438 615.238281 716.238281 614.683594 C 718.457031 614.128906 720.6875 613.628906 722.929688 613.183594 C 725.171875 612.734375 727.421875 612.34375 729.683594 612.011719 C 731.945312 611.675781 734.214844 611.394531 736.488281 611.171875 C 738.761719 610.945312 741.042969 610.777344 743.324219 610.667969 C 745.609375 610.554688 747.894531 610.5 750.179688 610.5 C 752.464844 610.5 754.75 610.554688 757.035156 610.667969 C 759.316406 610.777344 761.597656 610.945312 763.871094 611.171875 C 766.144531 611.394531 768.414062 611.675781 770.675781 612.011719 C 772.9375 612.34375 775.1875 612.734375 777.429688 613.183594 C 779.671875 613.628906 781.902344 614.128906 784.121094 614.683594 C 786.335938 615.238281 788.539062 615.847656 790.726562 616.511719 C 792.914062 617.175781 795.085938 617.894531 797.238281 618.664062 C 799.390625 619.433594 801.519531 620.257812 803.632812 621.128906 C 805.746094 622.003906 807.835938 622.933594 809.902344 623.910156 C 811.96875 624.886719 814.007812 625.914062 816.023438 626.992188 C 818.042969 628.070312 820.03125 629.195312 821.988281 630.371094 C 823.949219 631.546875 825.882812 632.769531 827.78125 634.039062 C 829.683594 635.308594 831.550781 636.625 833.386719 637.988281 C 835.222656 639.347656 837.027344 640.753906 838.792969 642.203125 C 840.558594 643.65625 842.289062 645.148438 843.984375 646.683594 C 845.679688 648.21875 847.332031 649.792969 848.949219 651.410156 C 850.566406 653.027344 852.140625 654.679688 853.675781 656.375 C 855.210938 658.070312 856.703125 659.800781 858.15625 661.566406 C 859.605469 663.332031 861.011719 665.136719 862.371094 666.972656 C 863.734375 668.808594 865.050781 670.675781 866.320312 672.578125 C 867.589844 674.476562 868.8125 676.410156 869.988281 678.367188 C 871.164062 680.328125 872.289062 682.316406 873.367188 684.335938 C 874.445312 686.351562 875.472656 688.390625 876.449219 690.457031 C 877.425781 692.523438 878.355469 694.613281 879.226562 696.726562 C 880.101562 698.835938 880.925781 700.96875 881.695312 703.121094 C 882.464844 705.273438 883.183594 707.445312 883.847656 709.632812 C 884.511719 711.820312 885.121094 714.023438 885.675781 716.238281 C 886.230469 718.457031 886.730469 720.6875 887.175781 722.929688 C 887.625 725.171875 888.015625 727.421875 888.347656 729.683594 C 888.683594 731.945312 888.964844 734.214844 889.1875 736.488281 C 889.414062 738.761719 889.582031 741.042969 889.691406 743.324219 C 889.804688 745.609375 889.859375 747.894531 889.859375 750.179688 C 889.859375 752.464844 889.800781 754.75 889.6875 757.03125 C 889.570312 759.3125 889.402344 761.59375 889.175781 763.867188 C 888.949219 766.140625 888.667969 768.40625 888.332031 770.667969 C 887.992188 772.929688 887.601562 775.179688 887.152344 777.421875 C 886.707031 779.660156 886.203125 781.890625 885.648438 784.105469 C 885.089844 786.324219 884.480469 788.523438 883.8125 790.710938 C 883.148438 792.898438 882.429688 795.066406 881.660156 797.21875 C 880.890625 799.367188 880.066406 801.5 879.191406 803.609375 C 878.316406 805.722656 877.386719 807.808594 876.410156 809.875 C 875.429688 811.941406 874.402344 813.980469 873.324219 815.996094 C 872.246094 818.011719 871.121094 820 869.945312 821.957031 C 868.769531 823.917969 867.546875 825.847656 866.277344 827.75 C 865.007812 829.648438 863.691406 831.515625 862.328125 833.351562 C 860.96875 835.1875 859.5625 836.988281 858.109375 838.753906 C 856.660156 840.519531 855.167969 842.25 853.632812 843.945312 C 852.097656 845.636719 850.523438 847.292969 848.90625 848.90625 C 847.292969 850.523438 845.636719 852.097656 843.945312 853.632812 C 842.25 855.167969 840.519531 856.660156 838.753906 858.109375 C 836.988281 859.5625 835.1875 860.96875 833.351562 862.328125 C 831.515625 863.691406 829.648438 865.007812 827.75 866.277344 C 825.847656 867.546875 823.917969 868.769531 821.960938 869.945312 C 820 871.121094 818.011719 872.246094 815.996094 873.324219 C 813.980469 874.402344 811.941406 875.429688 809.875 876.410156 C 807.808594 877.386719 805.722656 878.316406 803.609375 879.191406 C 801.5 880.066406 799.367188 880.890625 797.21875 881.660156 C 795.066406 882.429688 792.898438 883.148438 790.710938 883.8125 C 788.523438 884.480469 786.324219 885.089844 784.105469 885.648438 C 781.890625 886.203125 779.660156 886.707031 777.421875 887.152344 C 775.179688 887.601562 772.929688 887.992188 770.667969 888.332031 C 768.40625 888.667969 766.140625 888.949219 763.867188 889.175781 C 761.59375 889.402344 759.3125 889.570312 757.03125 889.6875 C 754.75 889.800781 752.464844 889.859375 750.179688 889.859375 Z M 750.179688 624.800781 C 748.128906 624.800781 746.078125 624.851562 744.027344 624.953125 C 741.976562 625.054688 739.933594 625.207031 737.890625 625.40625 C 735.847656 625.605469 733.8125 625.859375 731.78125 626.160156 C 729.753906 626.460938 727.730469 626.8125 725.71875 627.210938 C 723.707031 627.613281 721.707031 628.0625 719.714844 628.558594 C 717.726562 629.058594 715.75 629.605469 713.785156 630.199219 C 711.820312 630.796875 709.875 631.441406 707.941406 632.132812 C 706.007812 632.824219 704.09375 633.5625 702.199219 634.347656 C 700.304688 635.132812 698.429688 635.960938 696.574219 636.839844 C 694.71875 637.71875 692.886719 638.640625 691.078125 639.605469 C 689.269531 640.574219 687.484375 641.585938 685.722656 642.640625 C 683.964844 643.695312 682.230469 644.792969 680.523438 645.933594 C 678.816406 647.070312 677.140625 648.253906 675.492188 649.476562 C 673.84375 650.699219 672.226562 651.960938 670.640625 653.261719 C 669.054688 654.5625 667.5 655.902344 665.980469 657.28125 C 664.460938 658.660156 662.976562 660.074219 661.523438 661.523438 C 660.074219 662.976562 658.660156 664.460938 657.28125 665.980469 C 655.902344 667.5 654.5625 669.054688 653.261719 670.640625 C 651.960938 672.226562 650.699219 673.84375 649.476562 675.492188 C 648.253906 677.140625 647.074219 678.816406 645.933594 680.523438 C 644.792969 682.230469 643.695312 683.964844 642.640625 685.722656 C 641.585938 687.484375 640.574219 689.269531 639.605469 691.078125 C 638.640625 692.886719 637.71875 694.71875 636.839844 696.574219 C 635.960938 698.429688 635.132812 700.304688 634.347656 702.199219 C 633.5625 704.09375 632.824219 706.007812 632.132812 707.941406 C 631.441406 709.875 630.796875 711.820312 630.203125 713.785156 C 629.605469 715.746094 629.058594 717.726562 628.558594 719.714844 C 628.0625 721.707031 627.613281 723.707031 627.210938 725.71875 C 626.8125 727.730469 626.460938 729.753906 626.160156 731.78125 C 625.859375 733.8125 625.605469 735.847656 625.40625 737.890625 C 625.207031 739.933594 625.054688 741.976562 624.953125 744.027344 C 624.851562 746.078125 624.800781 748.128906 624.800781 750.179688 C 624.800781 752.230469 624.851562 754.28125 624.953125 756.332031 C 625.054688 758.382812 625.207031 760.425781 625.40625 762.46875 C 625.605469 764.511719 625.859375 766.546875 626.160156 768.578125 C 626.460938 770.605469 626.8125 772.628906 627.210938 774.640625 C 627.613281 776.652344 628.0625 778.652344 628.558594 780.644531 C 629.058594 782.632812 629.605469 784.609375 630.203125 786.574219 C 630.796875 788.539062 631.441406 790.484375 632.132812 792.417969 C 632.824219 794.351562 633.5625 796.261719 634.347656 798.160156 C 635.132812 800.054688 635.960938 801.929688 636.839844 803.785156 C 637.71875 805.640625 638.640625 807.472656 639.605469 809.28125 C 640.574219 811.089844 641.585938 812.875 642.640625 814.636719 C 643.695312 816.394531 644.792969 818.128906 645.933594 819.835938 C 647.074219 821.542969 648.253906 823.21875 649.476562 824.867188 C 650.699219 826.515625 651.960938 828.132812 653.261719 829.71875 C 654.5625 831.304688 655.902344 832.855469 657.28125 834.378906 C 658.660156 835.898438 660.074219 837.382812 661.523438 838.835938 C 662.976562 840.285156 664.460938 841.699219 665.980469 843.078125 C 667.5 844.457031 669.054688 845.796875 670.640625 847.097656 C 672.226562 848.398438 673.84375 849.660156 675.492188 850.882812 C 677.140625 852.105469 678.816406 853.285156 680.523438 854.425781 C 682.230469 855.566406 683.964844 856.664062 685.722656 857.71875 C 687.484375 858.773438 689.269531 859.785156 691.078125 860.753906 C 692.886719 861.71875 694.71875 862.640625 696.574219 863.519531 C 698.429688 864.394531 700.304688 865.226562 702.199219 866.011719 C 704.09375 866.796875 706.007812 867.535156 707.941406 868.226562 C 709.875 868.917969 711.820312 869.5625 713.785156 870.15625 C 715.75 870.753906 717.726562 871.300781 719.714844 871.800781 C 721.707031 872.296875 723.707031 872.746094 725.71875 873.148438 C 727.730469 873.546875 729.753906 873.898438 731.78125 874.199219 C 733.8125 874.5 735.847656 874.75 737.890625 874.953125 C 739.933594 875.152344 741.976562 875.304688 744.027344 875.40625 C 746.078125 875.507812 748.128906 875.558594 750.179688 875.558594 C 752.230469 875.558594 754.28125 875.507812 756.332031 875.40625 C 758.382812 875.304688 760.425781 875.152344 762.46875 874.953125 C 764.511719 874.75 766.546875 874.5 768.578125 874.199219 C 770.605469 873.898438 772.628906 873.546875 774.640625 873.148438 C 776.652344 872.746094 778.652344 872.296875 780.644531 871.800781 C 782.632812 871.300781 784.609375 870.753906 786.574219 870.15625 C 788.539062 869.5625 790.484375 868.917969 792.417969 868.226562 C 794.351562 867.535156 796.265625 866.796875 798.160156 866.011719 C 800.054688 865.226562 801.929688 864.394531 803.785156 863.519531 C 805.640625 862.640625 807.472656 861.71875 809.28125 860.753906 C 811.089844 859.785156 812.875 858.773438 814.636719 857.71875 C 816.394531 856.664062 818.128906 855.566406 819.835938 854.425781 C 821.542969 853.285156 823.21875 852.105469 824.867188 850.882812 C 826.515625 849.660156 828.132812 848.398438 829.71875 847.097656 C 831.304688 845.796875 832.859375 844.457031 834.378906 843.078125 C 835.898438 841.699219 837.382812 840.285156 838.835938 838.835938 C 840.285156 837.382812 841.699219 835.898438 843.078125 834.378906 C 844.457031 832.855469 845.796875 831.304688 847.097656 829.71875 C 848.398438 828.132812 849.660156 826.515625 850.882812 824.867188 C 852.105469 823.21875 853.285156 821.542969 854.425781 819.835938 C 855.566406 818.128906 856.664062 816.394531 857.71875 814.636719 C 858.773438 812.875 859.785156 811.089844 860.753906 809.28125 C 861.71875 807.472656 862.640625 805.640625 863.519531 803.785156 C 864.394531 801.929688 865.226562 800.054688 866.011719 798.160156 C 866.796875 796.261719 867.535156 794.351562 868.226562 792.417969 C 868.917969 790.484375 869.5625 788.539062 870.15625 786.574219 C 870.753906 784.609375 871.300781 782.632812 871.800781 780.644531 C 872.296875 778.652344 872.746094 776.652344 873.148438 774.640625 C 873.546875 772.625 873.898438 770.605469 874.199219 768.578125 C 874.5 766.546875 874.753906 764.511719 874.953125 762.46875 C 875.152344 760.425781 875.304688 758.382812 875.40625 756.332031 C 875.507812 754.28125 875.558594 752.230469 875.558594 750.179688 C 875.554688 748.128906 875.503906 746.078125 875.402344 744.027344 C 875.296875 741.980469 875.144531 739.933594 874.945312 737.894531 C 874.742188 735.851562 874.488281 733.816406 874.1875 731.789062 C 873.882812 729.757812 873.53125 727.738281 873.128906 725.726562 C 872.730469 723.714844 872.277344 721.714844 871.777344 719.726562 C 871.277344 717.734375 870.730469 715.757812 870.132812 713.796875 C 869.539062 711.832031 868.894531 709.886719 868.203125 707.957031 C 867.507812 706.023438 866.769531 704.113281 865.984375 702.214844 C 865.199219 700.320312 864.367188 698.445312 863.488281 696.59375 C 862.609375 694.738281 861.6875 692.90625 860.722656 691.097656 C 859.753906 689.289062 858.742188 687.503906 857.6875 685.746094 C 856.632812 683.988281 855.535156 682.253906 854.394531 680.550781 C 853.253906 678.84375 852.074219 677.167969 850.851562 675.519531 C 849.628906 673.871094 848.367188 672.253906 847.066406 670.671875 C 845.761719 669.085938 844.421875 667.53125 843.046875 666.011719 C 841.667969 664.492188 840.253906 663.007812 838.804688 661.554688 C 837.351562 660.105469 835.867188 658.691406 834.347656 657.3125 C 832.828125 655.9375 831.273438 654.597656 829.6875 653.292969 C 828.105469 651.992188 826.488281 650.730469 824.839844 649.507812 C 823.191406 648.285156 821.515625 647.105469 819.808594 645.964844 C 818.105469 644.824219 816.371094 643.726562 814.613281 642.671875 C 812.855469 641.617188 811.070312 640.605469 809.261719 639.636719 C 807.453125 638.671875 805.621094 637.75 803.765625 636.871094 C 801.914062 635.992188 800.039062 635.160156 798.144531 634.375 C 796.246094 633.589844 794.335938 632.851562 792.402344 632.160156 C 790.472656 631.464844 788.527344 630.820312 786.5625 630.226562 C 784.601562 629.628906 782.625 629.082031 780.632812 628.582031 C 778.644531 628.082031 776.644531 627.632812 774.632812 627.230469 C 772.621094 626.828125 770.601562 626.476562 768.570312 626.171875 C 766.542969 625.871094 764.507812 625.617188 762.464844 625.417969 C 760.425781 625.214844 758.378906 625.0625 756.332031 624.957031 C 754.28125 624.855469 752.230469 624.804688 750.179688 624.800781 Z M 750.179688 624.800781 " fill-opacity="1" fill-rule="nonzero"/></g></svg>