<svg xmlns="http://www.w3.org/2000/svg" xmlns:xlink="http://www.w3.org/1999/xlink" width="500" zoomAndPan="magnify" viewBox="0 0 375 374.999991" height="500" preserveAspectRatio="xMidYMid meet" version="1.0"><path fill="#264de4" d="M 52.261719 337.515625 L 22.171875 0 L 352.828125 0 L 322.703125 337.460938 L 187.296875 375 Z M 52.261719 337.515625 " fill-opacity="1" fill-rule="nonzero"/><path fill="#2965f1" d="M 296.914062 315.972656 L 322.65625 27.597656 L 187.5 27.597656 L 187.5 346.304688 Z M 296.914062 315.972656 " fill-opacity="1" fill-rule="nonzero"/><path fill="#ebebeb" d="M 91.15625 152.777344 L 94.867188 194.171875 L 187.5 194.171875 L 187.5 152.777344 Z M 87.464844 110.386719 L 187.5 110.386719 L 187.5 68.992188 L 83.703125 68.992188 Z M 187.5 260.28125 L 187.316406 260.332031 L 141.214844 247.882812 L 138.269531 214.867188 L 96.714844 214.867188 L 102.515625 279.863281 L 187.308594 303.402344 L 187.5 303.351562 Z M 187.5 260.28125 " fill-opacity="1" fill-rule="nonzero"/><path fill="#ffffff" d="M 187.355469 152.777344 L 187.355469 194.171875 L 238.328125 194.171875 L 233.523438 247.855469 L 187.355469 260.316406 L 187.355469 303.382812 L 272.21875 279.863281 L 272.839844 272.871094 L 282.566406 163.890625 L 283.578125 152.777344 L 291.050781 68.992188 L 187.355469 68.992188 L 187.355469 110.386719 L 245.6875 110.386719 L 241.917969 152.777344 Z M 187.355469 152.777344 " fill-opacity="1" fill-rule="nonzero"/></svg>