<svg xmlns="http://www.w3.org/2000/svg" xmlns:xlink="http://www.w3.org/1999/xlink" width="500" zoomAndPan="magnify" viewBox="0 0 375 374.999991" height="500" preserveAspectRatio="xMidYMid meet" version="1.0"><path fill="#e34f26" d="M 52.003906 336.914062 L 21.972656 0 L 352.292969 0 L 322.265625 336.914062 L 186.765625 375 " fill-opacity="1" fill-rule="nonzero"/><path fill="#ef652a" d="M 187.5 345.703125 L 296.628906 315.671875 L 322.265625 27.097656 L 187.5 27.097656 " fill-opacity="1" fill-rule="nonzero"/><path fill="#ebebeb" d="M 187.5 152.34375 L 132.566406 152.34375 L 128.90625 109.863281 L 187.5 109.863281 L 187.5 68.847656 L 83.496094 68.847656 L 84.226562 79.832031 L 94.480469 194.089844 L 187.5 194.089844 Z M 187.5 260.007812 L 186.765625 260.007812 L 140.625 247.558594 L 137.695312 214.597656 L 96.679688 214.597656 L 101.804688 279.785156 L 186.765625 303.222656 L 187.5 303.222656 Z M 187.5 260.007812 " fill-opacity="1" fill-rule="nonzero"/><path fill="#ffffff" d="M 186.765625 152.34375 L 186.765625 194.089844 L 238.035156 194.089844 L 232.910156 247.558594 L 186.765625 260.007812 L 186.765625 303.222656 L 271.726562 279.785156 L 272.460938 272.460938 L 281.980469 163.328125 L 283.445312 152.34375 Z M 186.765625 68.847656 L 186.765625 109.863281 L 287.109375 109.863281 L 287.839844 101.074219 L 290.039062 79.832031 L 290.769531 68.847656 Z M 186.765625 68.847656 " fill-opacity="1" fill-rule="nonzero"/></svg>