<svg xmlns="http://www.w3.org/2000/svg" xmlns:xlink="http://www.w3.org/1999/xlink" width="500" zoomAndPan="magnify" viewBox="0 0 375 374.999991" height="500" preserveAspectRatio="xMidYMid meet" version="1.0"><defs><clipPath id="97066fc63e"><path d="M 5.136719 1.179688 L 369.636719 1.179688 L 369.636719 373.929688 L 5.136719 373.929688 Z M 5.136719 1.179688 " clip-rule="nonzero"/></clipPath></defs><g clip-path="url(#97066fc63e)"><path fill="#6affe1" d="M 325.433594 267.554688 C 298.128906 313.273438 248.183594 343.953125 191.210938 343.953125 C 105.042969 343.953125 34.941406 273.785156 34.941406 187.539062 C 34.941406 101.289062 105.042969 31.132812 191.210938 31.132812 C 258.839844 31.132812 316.566406 74.355469 338.269531 134.652344 L 369.628906 134.652344 C 346.800781 57.644531 275.464844 1.300781 191.210938 1.300781 C 88.609375 1.300781 5.136719 84.847656 5.136719 187.546875 C 5.136719 290.242188 88.609375 373.792969 191.210938 373.792969 C 265.214844 373.792969 329.261719 330.320312 359.214844 267.554688 Z M 325.433594 267.554688 " fill-opacity="1" fill-rule="nonzero"/></g><path fill="#6affe1" d="M 280.328125 101.90625 L 269.796875 90.90625 L 191.453125 169.320312 L 112.722656 90.523438 L 102.179688 101.390625 C 79.65625 124.632812 67.25 155.234375 67.25 187.546875 C 67.25 249.707031 113.230469 301.308594 172.929688 310.082031 L 172.929688 279.820312 C 129.75 271.367188 97.058594 233.207031 97.058594 187.546875 C 97.058594 168.144531 102.964844 149.558594 113.902344 133.898438 L 191.453125 211.523438 L 268.472656 134.433594 C 279.175781 149.980469 284.941406 168.386719 284.941406 187.554688 C 284.941406 233.214844 252.25 271.375 209.070312 279.828125 L 209.070312 310.089844 C 268.769531 301.308594 314.75 249.707031 314.75 187.554688 C 314.742188 155.507812 302.523438 125.097656 280.328125 101.90625 Z M 280.328125 101.90625 " fill-opacity="1" fill-rule="nonzero"/></svg>