<svg xmlns="http://www.w3.org/2000/svg" xmlns:xlink="http://www.w3.org/1999/xlink" width="500" zoomAndPan="magnify" viewBox="0 0 375 374.999991" height="500" preserveAspectRatio="xMidYMid meet" version="1.0"><defs><clipPath id="168e1af137"><path d="M 0 38.75 L 141 38.75 L 141 229 L 0 229 Z M 0 38.75 " clip-rule="nonzero"/></clipPath><clipPath id="e9becd9055"><path d="M 140 38.75 L 282 38.75 L 282 256 L 140 256 Z M 140 38.75 " clip-rule="nonzero"/></clipPath><clipPath id="be8ab047bc"><path d="M 140 228 L 235 228 L 235 336.5 L 140 336.5 Z M 140 228 " clip-rule="nonzero"/></clipPath><clipPath id="a002ecb61e"><path d="M 234 38.75 L 375 38.75 L 375 336.5 L 234 336.5 Z M 234 38.75 " clip-rule="nonzero"/></clipPath></defs><g clip-path="url(#168e1af137)"><path fill="#00b0ff" d="M 0.121094 201.160156 L 0.121094 38.75 L 140.65625 119.953125 L 140.65625 174.089844 L 46.96875 119.953125 L 46.96875 228.226562 Z M 0.121094 201.160156 " fill-opacity="1" fill-rule="nonzero"/></g><g clip-path="url(#e9becd9055)"><path fill="#0081cb" d="M 140.65625 119.953125 L 281.1875 38.75 L 281.1875 201.160156 L 187.5 255.296875 L 140.65625 228.226562 L 234.34375 174.089844 L 234.34375 119.953125 L 140.65625 174.089844 Z M 140.65625 119.953125 " fill-opacity="1" fill-rule="nonzero"/></g><g clip-path="url(#be8ab047bc)"><path fill="#00b0ff" d="M 140.65625 228.226562 L 140.65625 282.363281 L 234.34375 336.5 L 234.34375 282.363281 Z M 140.65625 228.226562 " fill-opacity="1" fill-rule="nonzero"/></g><g clip-path="url(#a002ecb61e)"><path fill="#0081cb" d="M 234.34375 336.5 L 374.878906 255.296875 L 374.878906 147.023438 L 328.03125 174.089844 L 328.03125 228.226562 L 234.34375 282.363281 Z M 328.03125 119.953125 L 328.03125 65.816406 L 374.878906 38.75 L 374.878906 92.886719 Z M 328.03125 119.953125 " fill-opacity="1" fill-rule="nonzero"/></g></svg>