<svg xmlns="http://www.w3.org/2000/svg" xmlns:xlink="http://www.w3.org/1999/xlink" width="500" zoomAndPan="magnify" viewBox="0 0 375 374.999991" height="500" preserveAspectRatio="xMidYMid meet" version="1.0"><defs><clipPath id="7fe89f2b15"><path d="M 144 209 L 227 209 L 227 302.113281 L 144 302.113281 Z M 144 209 " clip-rule="nonzero"/></clipPath><clipPath id="01ecc7718a"><path d="M 0 72.613281 L 375 72.613281 L 375 217 L 0 217 Z M 0 72.613281 " clip-rule="nonzero"/></clipPath><clipPath id="6b5d6ab306"><path d="M 98.074219 125 L 178.605469 125 L 178.605469 216.589844 L 98.074219 216.589844 Z M 98.074219 125 " clip-rule="nonzero"/></clipPath><clipPath id="8e52b19f3d"><path d="M 136.246094 125.660156 L 100.53125 146.25 C 99.195312 147.019531 98.375 148.441406 98.375 149.980469 L 98.375 191.1875 C 98.375 192.726562 99.195312 194.148438 100.53125 194.917969 L 136.25 215.523438 C 137.585938 216.292969 139.230469 216.292969 140.5625 215.523438 L 176.273438 194.917969 C 177.605469 194.148438 178.429688 192.722656 178.429688 191.1875 L 178.429688 149.980469 C 178.429688 148.441406 177.605469 147.019531 176.265625 146.25 L 140.5625 125.660156 C 139.890625 125.277344 139.144531 125.082031 138.398438 125.082031 C 137.652344 125.082031 136.90625 125.277344 136.238281 125.660156 " clip-rule="nonzero"/></clipPath><clipPath id="b4d3e267e1"><path d="M 214.519531 142.753906 L 113.882812 93.480469 L 62.28125 198.621094 L 162.914062 247.894531 Z M 214.519531 142.753906 " clip-rule="nonzero"/></clipPath><linearGradient x1="-0.347234" gradientTransform="matrix(-32.267882, 65.749006, -65.826223, -32.230029, 152.940919, 140.920517)" y1="0" x2="1.251868" gradientUnits="userSpaceOnUse" y2="0" id="290cc03710"><stop stop-opacity="1" stop-color="rgb(24.299622%, 52.49939%, 23.899841%)" offset="0"/><stop stop-opacity="1" stop-color="rgb(24.299622%, 52.49939%, 23.899841%)" offset="0.25"/><stop stop-opacity="1" stop-color="rgb(24.299622%, 52.49939%, 23.899841%)" offset="0.28125"/><stop stop-opacity="1" stop-color="rgb(24.299622%, 52.49939%, 23.899841%)" offset="0.296875"/><stop stop-opacity="1" stop-color="rgb(24.415588%, 52.565002%, 23.991394%)" offset="0.304688"/><stop stop-opacity="1" stop-color="rgb(24.708557%, 52.731323%, 24.221802%)" offset="0.3125"/><stop stop-opacity="1" stop-color="rgb(25.059509%, 52.929688%, 24.499512%)" offset="0.320313"/><stop stop-opacity="1" stop-color="rgb(25.411987%, 53.129578%, 24.777222%)" offset="0.328125"/><stop stop-opacity="1" stop-color="rgb(25.762939%, 53.327942%, 25.053406%)" offset="0.335938"/><stop stop-opacity="1" stop-color="rgb(26.113892%, 53.527832%, 25.331116%)" offset="0.34375"/><stop stop-opacity="1" stop-color="rgb(26.46637%, 53.726196%, 25.608826%)" offset="0.351563"/><stop stop-opacity="1" stop-color="rgb(26.817322%, 53.926086%, 25.886536%)" offset="0.359375"/><stop stop-opacity="1" stop-color="rgb(27.1698%, 54.125977%, 26.16272%)" offset="0.367188"/><stop stop-opacity="1" stop-color="rgb(27.520752%, 54.324341%, 26.44043%)" offset="0.375"/><stop stop-opacity="1" stop-color="rgb(27.871704%, 54.524231%, 26.71814%)" offset="0.382813"/><stop stop-opacity="1" stop-color="rgb(28.224182%, 54.722595%, 26.99585%)" offset="0.390625"/><stop stop-opacity="1" stop-color="rgb(28.575134%, 54.922485%, 27.27356%)" offset="0.398438"/><stop stop-opacity="1" stop-color="rgb(28.927612%, 55.12085%, 27.549744%)" offset="0.40625"/><stop stop-opacity="1" stop-color="rgb(29.278564%, 55.32074%, 27.827454%)" offset="0.414063"/><stop stop-opacity="1" stop-color="rgb(29.629517%, 55.52063%, 28.105164%)" offset="0.421875"/><stop stop-opacity="1" stop-color="rgb(29.981995%, 55.718994%, 28.382874%)" offset="0.429688"/><stop stop-opacity="1" stop-color="rgb(30.332947%, 55.918884%, 28.659058%)" offset="0.4375"/><stop stop-opacity="1" stop-color="rgb(30.685425%, 56.117249%, 28.936768%)" offset="0.445313"/><stop stop-opacity="1" stop-color="rgb(31.036377%, 56.317139%, 29.214478%)" offset="0.453125"/><stop stop-opacity="1" stop-color="rgb(31.388855%, 56.515503%, 29.492188%)" offset="0.460938"/><stop stop-opacity="1" stop-color="rgb(31.739807%, 56.715393%, 29.768372%)" offset="0.46875"/><stop stop-opacity="1" stop-color="rgb(32.090759%, 56.915283%, 30.046082%)" offset="0.476563"/><stop stop-opacity="1" stop-color="rgb(32.443237%, 57.113647%, 30.323792%)" offset="0.484375"/><stop stop-opacity="1" stop-color="rgb(32.794189%, 57.313538%, 30.601501%)" offset="0.492188"/><stop stop-opacity="1" stop-color="rgb(33.135986%, 57.514954%, 30.865479%)" offset="0.5"/><stop stop-opacity="1" stop-color="rgb(33.328247%, 57.749939%, 30.941772%)" offset="0.507812"/><stop stop-opacity="1" stop-color="rgb(33.380127%, 58.015442%, 30.839539%)" offset="0.515625"/><stop stop-opacity="1" stop-color="rgb(33.432007%, 58.280945%, 30.738831%)" offset="0.523438"/><stop stop-opacity="1" stop-color="rgb(33.485413%, 58.546448%, 30.636597%)" offset="0.53125"/><stop stop-opacity="1" stop-color="rgb(33.537292%, 58.811951%, 30.534363%)" offset="0.539063"/><stop stop-opacity="1" stop-color="rgb(33.589172%, 59.077454%, 30.433655%)" offset="0.546875"/><stop stop-opacity="1" stop-color="rgb(33.641052%, 59.342957%, 30.331421%)" offset="0.554688"/><stop stop-opacity="1" stop-color="rgb(33.692932%, 59.608459%, 30.230713%)" offset="0.5625"/><stop stop-opacity="1" stop-color="rgb(33.744812%, 59.873962%, 30.128479%)" offset="0.570313"/><stop stop-opacity="1" stop-color="rgb(33.796692%, 60.139465%, 30.027771%)" offset="0.578125"/><stop stop-opacity="1" stop-color="rgb(33.850098%, 60.406494%, 29.925537%)" offset="0.585938"/><stop stop-opacity="1" stop-color="rgb(33.901978%, 60.671997%, 29.824829%)" offset="0.59375"/><stop stop-opacity="1" stop-color="rgb(33.953857%, 60.9375%, 29.722595%)" offset="0.601562"/><stop stop-opacity="1" stop-color="rgb(34.005737%, 61.203003%, 29.620361%)" offset="0.609375"/><stop stop-opacity="1" stop-color="rgb(34.057617%, 61.468506%, 29.519653%)" offset="0.617188"/><stop stop-opacity="1" stop-color="rgb(34.109497%, 61.734009%, 29.417419%)" offset="0.625"/><stop stop-opacity="1" stop-color="rgb(34.161377%, 61.999512%, 29.316711%)" offset="0.632813"/><stop stop-opacity="1" stop-color="rgb(34.214783%, 62.265015%, 29.214478%)" offset="0.640625"/><stop stop-opacity="1" stop-color="rgb(34.266663%, 62.530518%, 29.11377%)" offset="0.648438"/><stop stop-opacity="1" stop-color="rgb(34.318542%, 62.796021%, 29.011536%)" offset="0.65625"/><stop stop-opacity="1" stop-color="rgb(34.370422%, 63.061523%, 28.909302%)" offset="0.664063"/><stop stop-opacity="1" stop-color="rgb(34.422302%, 63.328552%, 28.808594%)" offset="0.671875"/><stop stop-opacity="1" stop-color="rgb(34.474182%, 63.594055%, 28.70636%)" offset="0.679688"/><stop stop-opacity="1" stop-color="rgb(34.526062%, 63.859558%, 28.605652%)" offset="0.6875"/><stop stop-opacity="1" stop-color="rgb(34.577942%, 64.125061%, 28.503418%)" offset="0.695312"/><stop stop-opacity="1" stop-color="rgb(34.631348%, 64.390564%, 28.40271%)" offset="0.703125"/><stop stop-opacity="1" stop-color="rgb(34.683228%, 64.656067%, 28.300476%)" offset="0.710938"/><stop stop-opacity="1" stop-color="rgb(34.735107%, 64.92157%, 28.199768%)" offset="0.71875"/><stop stop-opacity="1" stop-color="rgb(34.786987%, 65.187073%, 28.097534%)" offset="0.726563"/><stop stop-opacity="1" stop-color="rgb(34.838867%, 65.452576%, 27.9953%)" offset="0.734375"/><stop stop-opacity="1" stop-color="rgb(34.890747%, 65.718079%, 27.894592%)" offset="0.742188"/><stop stop-opacity="1" stop-color="rgb(34.942627%, 65.983582%, 27.792358%)" offset="0.75"/><stop stop-opacity="1" stop-color="rgb(34.996033%, 66.25061%, 27.69165%)" offset="0.757813"/><stop stop-opacity="1" stop-color="rgb(35.047913%, 66.516113%, 27.589417%)" offset="0.765625"/><stop stop-opacity="1" stop-color="rgb(35.099792%, 66.781616%, 27.488708%)" offset="0.773438"/><stop stop-opacity="1" stop-color="rgb(35.151672%, 67.047119%, 27.386475%)" offset="0.78125"/><stop stop-opacity="1" stop-color="rgb(35.203552%, 67.312622%, 27.284241%)" offset="0.789062"/><stop stop-opacity="1" stop-color="rgb(35.255432%, 67.578125%, 27.183533%)" offset="0.796875"/><stop stop-opacity="1" stop-color="rgb(35.290527%, 67.755127%, 27.116394%)" offset="0.8125"/><stop stop-opacity="1" stop-color="rgb(35.299683%, 67.799377%, 27.099609%)" offset="0.875"/><stop stop-opacity="1" stop-color="rgb(35.299683%, 67.799377%, 27.099609%)" offset="1"/></linearGradient><clipPath id="40c2f15dd1"><path d="M 99 125.148438 L 177.757812 125.148438 L 177.757812 216.589844 L 99 216.589844 Z M 99 125.148438 " clip-rule="nonzero"/></clipPath><clipPath id="041ee0e5ce"><path d="M 99.257812 193.804688 C 99.601562 194.246094 100.027344 194.628906 100.53125 194.917969 L 131.167969 212.59375 L 136.269531 215.523438 C 137.035156 215.960938 137.902344 216.148438 138.757812 216.085938 C 139.042969 216.0625 139.328125 216.007812 139.605469 215.929688 L 177.273438 147.042969 C 176.984375 146.730469 176.648438 146.464844 176.269531 146.246094 L 152.882812 132.757812 L 140.523438 125.652344 C 140.171875 125.449219 139.792969 125.308594 139.402344 125.207031 Z M 99.257812 193.804688 " clip-rule="nonzero"/></clipPath><clipPath id="a41d87d967"><path d="M 55.75 157.324219 L 126.808594 253.386719 L 220.785156 184.035156 L 149.722656 87.976562 Z M 55.75 157.324219 " clip-rule="nonzero"/></clipPath><linearGradient x1="-0.456148" gradientTransform="matrix(90.539915, -66.819761, 66.898237, 90.433699, 132.990113, 175.437036)" y1="0" x2="0.581849" gradientUnits="userSpaceOnUse" y2="0" id="181aaad080"><stop stop-opacity="1" stop-color="rgb(24.299622%, 52.49939%, 23.899841%)" offset="0"/><stop stop-opacity="1" stop-color="rgb(24.299622%, 52.49939%, 23.899841%)" offset="0.5"/><stop stop-opacity="1" stop-color="rgb(24.299622%, 52.49939%, 23.899841%)" offset="0.5625"/><stop stop-opacity="1" stop-color="rgb(24.307251%, 52.502441%, 23.904419%)" offset="0.570312"/><stop stop-opacity="1" stop-color="rgb(24.67041%, 52.69165%, 24.176025%)" offset="0.574219"/><stop stop-opacity="1" stop-color="rgb(25.027466%, 52.876282%, 24.441528%)" offset="0.578125"/><stop stop-opacity="1" stop-color="rgb(25.384521%, 53.060913%, 24.707031%)" offset="0.582031"/><stop stop-opacity="1" stop-color="rgb(25.741577%, 53.24707%, 24.972534%)" offset="0.585938"/><stop stop-opacity="1" stop-color="rgb(26.098633%, 53.431702%, 25.238037%)" offset="0.589844"/><stop stop-opacity="1" stop-color="rgb(26.455688%, 53.616333%, 25.505066%)" offset="0.59375"/><stop stop-opacity="1" stop-color="rgb(26.811218%, 53.800964%, 25.770569%)" offset="0.597656"/><stop stop-opacity="1" stop-color="rgb(27.168274%, 53.987122%, 26.036072%)" offset="0.601562"/><stop stop-opacity="1" stop-color="rgb(27.52533%, 54.171753%, 26.301575%)" offset="0.605469"/><stop stop-opacity="1" stop-color="rgb(27.882385%, 54.356384%, 26.567078%)" offset="0.609375"/><stop stop-opacity="1" stop-color="rgb(28.239441%, 54.541016%, 26.832581%)" offset="0.613281"/><stop stop-opacity="1" stop-color="rgb(28.596497%, 54.725647%, 27.098083%)" offset="0.617187"/><stop stop-opacity="1" stop-color="rgb(28.952026%, 54.910278%, 27.363586%)" offset="0.621094"/><stop stop-opacity="1" stop-color="rgb(29.309082%, 55.096436%, 27.629089%)" offset="0.625"/><stop stop-opacity="1" stop-color="rgb(29.666138%, 55.281067%, 27.894592%)" offset="0.628906"/><stop stop-opacity="1" stop-color="rgb(30.023193%, 55.465698%, 28.160095%)" offset="0.632813"/><stop stop-opacity="1" stop-color="rgb(30.378723%, 55.65033%, 28.425598%)" offset="0.636719"/><stop stop-opacity="1" stop-color="rgb(30.735779%, 55.834961%, 28.692627%)" offset="0.640625"/><stop stop-opacity="1" stop-color="rgb(31.092834%, 56.019592%, 28.95813%)" offset="0.644531"/><stop stop-opacity="1" stop-color="rgb(31.44989%, 56.20575%, 29.223633%)" offset="0.648438"/><stop stop-opacity="1" stop-color="rgb(31.806946%, 56.390381%, 29.489136%)" offset="0.652344"/><stop stop-opacity="1" stop-color="rgb(32.164001%, 56.575012%, 29.754639%)" offset="0.65625"/><stop stop-opacity="1" stop-color="rgb(32.519531%, 56.759644%, 30.020142%)" offset="0.660156"/><stop stop-opacity="1" stop-color="rgb(32.876587%, 56.944275%, 30.285645%)" offset="0.664062"/><stop stop-opacity="1" stop-color="rgb(33.233643%, 57.128906%, 30.551147%)" offset="0.667969"/><stop stop-opacity="1" stop-color="rgb(33.590698%, 57.315063%, 30.81665%)" offset="0.671875"/><stop stop-opacity="1" stop-color="rgb(33.947754%, 57.499695%, 31.082153%)" offset="0.675781"/><stop stop-opacity="1" stop-color="rgb(34.30481%, 57.684326%, 31.347656%)" offset="0.679688"/><stop stop-opacity="1" stop-color="rgb(34.660339%, 57.868958%, 31.613159%)" offset="0.683594"/><stop stop-opacity="1" stop-color="rgb(35.017395%, 58.053589%, 31.878662%)" offset="0.6875"/><stop stop-opacity="1" stop-color="rgb(35.374451%, 58.23822%, 32.144165%)" offset="0.691406"/><stop stop-opacity="1" stop-color="rgb(35.731506%, 58.424377%, 32.411194%)" offset="0.695312"/><stop stop-opacity="1" stop-color="rgb(36.087036%, 58.609009%, 32.676697%)" offset="0.699219"/><stop stop-opacity="1" stop-color="rgb(36.444092%, 58.79364%, 32.9422%)" offset="0.703125"/><stop stop-opacity="1" stop-color="rgb(36.801147%, 58.978271%, 33.207703%)" offset="0.707031"/><stop stop-opacity="1" stop-color="rgb(37.158203%, 59.162903%, 33.473206%)" offset="0.710937"/><stop stop-opacity="1" stop-color="rgb(37.515259%, 59.347534%, 33.738708%)" offset="0.714844"/><stop stop-opacity="1" stop-color="rgb(37.872314%, 59.533691%, 34.004211%)" offset="0.71875"/><stop stop-opacity="1" stop-color="rgb(38.031006%, 59.657288%, 34.109497%)" offset="0.726563"/><stop stop-opacity="1" stop-color="rgb(38.305664%, 59.890747%, 34.286499%)" offset="0.734375"/><stop stop-opacity="1" stop-color="rgb(38.536072%, 60.110474%, 34.428406%)" offset="0.742188"/><stop stop-opacity="1" stop-color="rgb(38.768005%, 60.331726%, 34.571838%)" offset="0.75"/><stop stop-opacity="1" stop-color="rgb(38.999939%, 60.551453%, 34.713745%)" offset="0.757812"/><stop stop-opacity="1" stop-color="rgb(39.231873%, 60.771179%, 34.855652%)" offset="0.765625"/><stop stop-opacity="1" stop-color="rgb(39.46228%, 60.992432%, 34.997559%)" offset="0.773438"/><stop stop-opacity="1" stop-color="rgb(39.694214%, 61.212158%, 35.140991%)" offset="0.78125"/><stop stop-opacity="1" stop-color="rgb(39.926147%, 61.433411%, 35.282898%)" offset="0.789062"/><stop stop-opacity="1" stop-color="rgb(40.158081%, 61.653137%, 35.424805%)" offset="0.796875"/><stop stop-opacity="1" stop-color="rgb(40.390015%, 61.87439%, 35.566711%)" offset="0.804687"/><stop stop-opacity="1" stop-color="rgb(40.620422%, 62.094116%, 35.710144%)" offset="0.8125"/><stop stop-opacity="1" stop-color="rgb(40.852356%, 62.315369%, 35.852051%)" offset="0.820313"/><stop stop-opacity="1" stop-color="rgb(41.08429%, 62.535095%, 35.993958%)" offset="0.828125"/><stop stop-opacity="1" stop-color="rgb(41.316223%, 62.756348%, 36.135864%)" offset="0.835938"/><stop stop-opacity="1" stop-color="rgb(41.546631%, 62.976074%, 36.279297%)" offset="0.84375"/><stop stop-opacity="1" stop-color="rgb(41.778564%, 63.195801%, 36.421204%)" offset="0.851562"/><stop stop-opacity="1" stop-color="rgb(42.010498%, 63.417053%, 36.56311%)" offset="0.859375"/><stop stop-opacity="1" stop-color="rgb(42.242432%, 63.63678%, 36.706543%)" offset="0.867188"/><stop stop-opacity="1" stop-color="rgb(42.474365%, 63.858032%, 36.84845%)" offset="0.875"/><stop stop-opacity="1" stop-color="rgb(42.704773%, 64.077759%, 36.990356%)" offset="0.882812"/><stop stop-opacity="1" stop-color="rgb(42.936707%, 64.299011%, 37.132263%)" offset="0.890625"/><stop stop-opacity="1" stop-color="rgb(43.16864%, 64.518738%, 37.275696%)" offset="0.898437"/><stop stop-opacity="1" stop-color="rgb(43.400574%, 64.73999%, 37.417603%)" offset="0.90625"/><stop stop-opacity="1" stop-color="rgb(43.630981%, 64.959717%, 37.559509%)" offset="0.914063"/><stop stop-opacity="1" stop-color="rgb(43.862915%, 65.180969%, 37.701416%)" offset="0.921875"/><stop stop-opacity="1" stop-color="rgb(44.094849%, 65.400696%, 37.844849%)" offset="0.929688"/><stop stop-opacity="1" stop-color="rgb(44.326782%, 65.621948%, 37.986755%)" offset="0.9375"/><stop stop-opacity="1" stop-color="rgb(44.55719%, 65.841675%, 38.128662%)" offset="0.945312"/><stop stop-opacity="1" stop-color="rgb(44.789124%, 66.061401%, 38.270569%)" offset="0.953125"/><stop stop-opacity="1" stop-color="rgb(45.021057%, 66.282654%, 38.414001%)" offset="0.960938"/><stop stop-opacity="1" stop-color="rgb(45.252991%, 66.50238%, 38.555908%)" offset="0.96875"/><stop stop-opacity="1" stop-color="rgb(45.484924%, 66.723633%, 38.697815%)" offset="0.976562"/><stop stop-opacity="1" stop-color="rgb(45.715332%, 66.943359%, 38.839722%)" offset="0.984375"/><stop stop-opacity="1" stop-color="rgb(45.947266%, 67.164612%, 38.983154%)" offset="0.992187"/><stop stop-opacity="1" stop-color="rgb(46.179199%, 67.384338%, 39.125061%)" offset="1"/></linearGradient><clipPath id="ba68548990"><path d="M 100.632812 125.089844 L 178.355469 125.089844 L 178.355469 216.054688 L 100.632812 216.054688 Z M 100.632812 125.089844 " clip-rule="nonzero"/></clipPath><clipPath id="979c876ec5"><path d="M 137.972656 125.105469 C 137.375 125.167969 136.789062 125.351562 136.246094 125.660156 L 100.636719 146.1875 L 139.035156 216.050781 C 139.570312 215.976562 140.097656 215.796875 140.570312 215.523438 L 176.285156 194.917969 C 177.386719 194.277344 178.140625 193.199219 178.371094 191.972656 L 139.222656 125.175781 C 138.933594 125.121094 138.648438 125.089844 138.351562 125.089844 C 138.230469 125.089844 138.113281 125.097656 137.992188 125.109375 " clip-rule="nonzero"/></clipPath><linearGradient x1="0.0426928" gradientTransform="matrix(82.581037, 0, 0, 82.484167, 97.109881, 170.574566)" y1="0" x2="0.983822" gradientUnits="userSpaceOnUse" y2="0" id="180b86b248"><stop stop-opacity="1" stop-color="rgb(41.999817%, 74.899292%, 27.799988%)" offset="0"/><stop stop-opacity="1" stop-color="rgb(41.999817%, 74.899292%, 27.799988%)" offset="0.125"/><stop stop-opacity="1" stop-color="rgb(41.999817%, 74.899292%, 27.799988%)" offset="0.15625"/><stop stop-opacity="1" stop-color="rgb(42.045593%, 74.862671%, 27.886963%)" offset="0.164062"/><stop stop-opacity="1" stop-color="rgb(42.190552%, 74.749756%, 28.153992%)" offset="0.171875"/><stop stop-opacity="1" stop-color="rgb(42.385864%, 74.597168%, 28.517151%)" offset="0.179688"/><stop stop-opacity="1" stop-color="rgb(42.581177%, 74.44458%, 28.878784%)" offset="0.1875"/><stop stop-opacity="1" stop-color="rgb(42.776489%, 74.290466%, 29.240417%)" offset="0.195312"/><stop stop-opacity="1" stop-color="rgb(42.971802%, 74.137878%, 29.603577%)" offset="0.203125"/><stop stop-opacity="1" stop-color="rgb(43.167114%, 73.985291%, 29.96521%)" offset="0.210938"/><stop stop-opacity="1" stop-color="rgb(43.362427%, 73.832703%, 30.328369%)" offset="0.21875"/><stop stop-opacity="1" stop-color="rgb(43.557739%, 73.680115%, 30.690002%)" offset="0.226562"/><stop stop-opacity="1" stop-color="rgb(43.753052%, 73.527527%, 31.051636%)" offset="0.234375"/><stop stop-opacity="1" stop-color="rgb(43.948364%, 73.374939%, 31.414795%)" offset="0.242188"/><stop stop-opacity="1" stop-color="rgb(44.143677%, 73.222351%, 31.776428%)" offset="0.25"/><stop stop-opacity="1" stop-color="rgb(44.338989%, 73.069763%, 32.139587%)" offset="0.257812"/><stop stop-opacity="1" stop-color="rgb(44.534302%, 72.917175%, 32.501221%)" offset="0.265625"/><stop stop-opacity="1" stop-color="rgb(44.729614%, 72.764587%, 32.86438%)" offset="0.273437"/><stop stop-opacity="1" stop-color="rgb(44.924927%, 72.612%, 33.226013%)" offset="0.28125"/><stop stop-opacity="1" stop-color="rgb(45.120239%, 72.457886%, 33.587646%)" offset="0.289062"/><stop stop-opacity="1" stop-color="rgb(45.315552%, 72.305298%, 33.950806%)" offset="0.296875"/><stop stop-opacity="1" stop-color="rgb(45.510864%, 72.15271%, 34.312439%)" offset="0.304687"/><stop stop-opacity="1" stop-color="rgb(45.707703%, 72.000122%, 34.675598%)" offset="0.3125"/><stop stop-opacity="1" stop-color="rgb(45.903015%, 71.847534%, 35.037231%)" offset="0.320312"/><stop stop-opacity="1" stop-color="rgb(46.098328%, 71.694946%, 35.398865%)" offset="0.328125"/><stop stop-opacity="1" stop-color="rgb(46.29364%, 71.542358%, 35.762024%)" offset="0.335937"/><stop stop-opacity="1" stop-color="rgb(46.488953%, 71.389771%, 36.123657%)" offset="0.34375"/><stop stop-opacity="1" stop-color="rgb(46.684265%, 71.237183%, 36.486816%)" offset="0.351562"/><stop stop-opacity="1" stop-color="rgb(46.879578%, 71.084595%, 36.84845%)" offset="0.359375"/><stop stop-opacity="1" stop-color="rgb(47.07489%, 70.932007%, 37.210083%)" offset="0.367187"/><stop stop-opacity="1" stop-color="rgb(47.270203%, 70.777893%, 37.573242%)" offset="0.375"/><stop stop-opacity="1" stop-color="rgb(47.410583%, 70.606995%, 37.893677%)" offset="0.382812"/><stop stop-opacity="1" stop-color="rgb(47.384644%, 70.376587%, 38.084412%)" offset="0.390625"/><stop stop-opacity="1" stop-color="rgb(47.244263%, 70.108032%, 38.189697%)" offset="0.398437"/><stop stop-opacity="1" stop-color="rgb(47.105408%, 69.837952%, 38.293457%)" offset="0.40625"/><stop stop-opacity="1" stop-color="rgb(46.966553%, 69.569397%, 38.397217%)" offset="0.414062"/><stop stop-opacity="1" stop-color="rgb(46.827698%, 69.300842%, 38.500977%)" offset="0.421875"/><stop stop-opacity="1" stop-color="rgb(46.688843%, 69.030762%, 38.606262%)" offset="0.429687"/><stop stop-opacity="1" stop-color="rgb(46.549988%, 68.762207%, 38.710022%)" offset="0.4375"/><stop stop-opacity="1" stop-color="rgb(46.411133%, 68.493652%, 38.813782%)" offset="0.445312"/><stop stop-opacity="1" stop-color="rgb(46.272278%, 68.223572%, 38.919067%)" offset="0.453125"/><stop stop-opacity="1" stop-color="rgb(46.133423%, 67.955017%, 39.022827%)" offset="0.460937"/><stop stop-opacity="1" stop-color="rgb(45.994568%, 67.684937%, 39.126587%)" offset="0.46875"/><stop stop-opacity="1" stop-color="rgb(45.825195%, 67.449951%, 39.135742%)" offset="0.476562"/><stop stop-opacity="1" stop-color="rgb(45.619202%, 67.254639%, 39.025879%)" offset="0.484375"/><stop stop-opacity="1" stop-color="rgb(45.405579%, 67.068481%, 38.893127%)" offset="0.492187"/><stop stop-opacity="1" stop-color="rgb(45.191956%, 66.880798%, 38.760376%)" offset="0.5"/><stop stop-opacity="1" stop-color="rgb(44.976807%, 66.694641%, 38.627625%)" offset="0.507812"/><stop stop-opacity="1" stop-color="rgb(44.763184%, 66.506958%, 38.494873%)" offset="0.515625"/><stop stop-opacity="1" stop-color="rgb(44.549561%, 66.320801%, 38.363647%)" offset="0.523437"/><stop stop-opacity="1" stop-color="rgb(44.335938%, 66.133118%, 38.230896%)" offset="0.53125"/><stop stop-opacity="1" stop-color="rgb(44.120789%, 65.94696%, 38.098145%)" offset="0.539062"/><stop stop-opacity="1" stop-color="rgb(43.907166%, 65.759277%, 37.965393%)" offset="0.546875"/><stop stop-opacity="1" stop-color="rgb(43.693542%, 65.57312%, 37.832642%)" offset="0.554687"/><stop stop-opacity="1" stop-color="rgb(43.479919%, 65.386963%, 37.69989%)" offset="0.5625"/><stop stop-opacity="1" stop-color="rgb(43.264771%, 65.19928%, 37.568665%)" offset="0.570312"/><stop stop-opacity="1" stop-color="rgb(43.051147%, 65.013123%, 37.435913%)" offset="0.578125"/><stop stop-opacity="1" stop-color="rgb(42.837524%, 64.825439%, 37.303162%)" offset="0.585937"/><stop stop-opacity="1" stop-color="rgb(42.622375%, 64.639282%, 37.17041%)" offset="0.59375"/><stop stop-opacity="1" stop-color="rgb(42.408752%, 64.451599%, 37.037659%)" offset="0.601562"/><stop stop-opacity="1" stop-color="rgb(42.195129%, 64.265442%, 36.904907%)" offset="0.609375"/><stop stop-opacity="1" stop-color="rgb(41.981506%, 64.077759%, 36.773682%)" offset="0.617187"/><stop stop-opacity="1" stop-color="rgb(41.766357%, 63.891602%, 36.64093%)" offset="0.625"/><stop stop-opacity="1" stop-color="rgb(41.552734%, 63.705444%, 36.508179%)" offset="0.632812"/><stop stop-opacity="1" stop-color="rgb(41.339111%, 63.517761%, 36.375427%)" offset="0.640625"/><stop stop-opacity="1" stop-color="rgb(41.125488%, 63.331604%, 36.242676%)" offset="0.648437"/><stop stop-opacity="1" stop-color="rgb(40.910339%, 63.143921%, 36.11145%)" offset="0.65625"/><stop stop-opacity="1" stop-color="rgb(40.696716%, 62.957764%, 35.978699%)" offset="0.664062"/><stop stop-opacity="1" stop-color="rgb(40.483093%, 62.770081%, 35.845947%)" offset="0.671875"/><stop stop-opacity="1" stop-color="rgb(40.26947%, 62.583923%, 35.713196%)" offset="0.679687"/><stop stop-opacity="1" stop-color="rgb(40.054321%, 62.39624%, 35.580444%)" offset="0.6875"/><stop stop-opacity="1" stop-color="rgb(39.840698%, 62.210083%, 35.447693%)" offset="0.695312"/><stop stop-opacity="1" stop-color="rgb(39.555359%, 61.988831%, 35.258484%)" offset="0.703125"/><stop stop-opacity="1" stop-color="rgb(39.079285%, 61.676025%, 34.912109%)" offset="0.707031"/><stop stop-opacity="1" stop-color="rgb(38.780212%, 61.489868%, 34.689331%)" offset="0.710937"/><stop stop-opacity="1" stop-color="rgb(38.48114%, 61.303711%, 34.466553%)" offset="0.714844"/><stop stop-opacity="1" stop-color="rgb(38.182068%, 61.11908%, 34.243774%)" offset="0.71875"/><stop stop-opacity="1" stop-color="rgb(37.882996%, 60.932922%, 34.020996%)" offset="0.722656"/><stop stop-opacity="1" stop-color="rgb(37.583923%, 60.748291%, 33.798218%)" offset="0.726562"/><stop stop-opacity="1" stop-color="rgb(37.284851%, 60.562134%, 33.575439%)" offset="0.730469"/><stop stop-opacity="1" stop-color="rgb(36.987305%, 60.377502%, 33.352661%)" offset="0.734375"/><stop stop-opacity="1" stop-color="rgb(36.688232%, 60.191345%, 33.129883%)" offset="0.738281"/><stop stop-opacity="1" stop-color="rgb(36.38916%, 60.006714%, 32.907104%)" offset="0.742187"/><stop stop-opacity="1" stop-color="rgb(36.090088%, 59.820557%, 32.684326%)" offset="0.746094"/><stop stop-opacity="1" stop-color="rgb(35.791016%, 59.634399%, 32.461548%)" offset="0.75"/><stop stop-opacity="1" stop-color="rgb(35.491943%, 59.448242%, 32.23877%)" offset="0.753906"/><stop stop-opacity="1" stop-color="rgb(35.192871%, 59.263611%, 32.015991%)" offset="0.757812"/><stop stop-opacity="1" stop-color="rgb(34.893799%, 59.077454%, 31.793213%)" offset="0.761719"/><stop stop-opacity="1" stop-color="rgb(34.596252%, 58.892822%, 31.57196%)" offset="0.765625"/><stop stop-opacity="1" stop-color="rgb(34.29718%, 58.706665%, 31.349182%)" offset="0.769531"/><stop stop-opacity="1" stop-color="rgb(33.998108%, 58.522034%, 31.126404%)" offset="0.773437"/><stop stop-opacity="1" stop-color="rgb(33.699036%, 58.335876%, 30.903625%)" offset="0.777344"/><stop stop-opacity="1" stop-color="rgb(33.399963%, 58.149719%, 30.680847%)" offset="0.78125"/><stop stop-opacity="1" stop-color="rgb(33.100891%, 57.963562%, 30.458069%)" offset="0.785156"/><stop stop-opacity="1" stop-color="rgb(32.803345%, 57.778931%, 30.235291%)" offset="0.789062"/><stop stop-opacity="1" stop-color="rgb(32.504272%, 57.592773%, 30.012512%)" offset="0.792969"/><stop stop-opacity="1" stop-color="rgb(32.2052%, 57.408142%, 29.789734%)" offset="0.796875"/><stop stop-opacity="1" stop-color="rgb(31.906128%, 57.221985%, 29.566956%)" offset="0.800781"/><stop stop-opacity="1" stop-color="rgb(31.607056%, 57.037354%, 29.344177%)" offset="0.804687"/><stop stop-opacity="1" stop-color="rgb(31.307983%, 56.851196%, 29.121399%)" offset="0.808594"/><stop stop-opacity="1" stop-color="rgb(31.008911%, 56.665039%, 28.898621%)" offset="0.8125"/><stop stop-opacity="1" stop-color="rgb(30.709839%, 56.478882%, 28.675842%)" offset="0.816406"/><stop stop-opacity="1" stop-color="rgb(30.412292%, 56.29425%, 28.453064%)" offset="0.820312"/><stop stop-opacity="1" stop-color="rgb(30.11322%, 56.108093%, 28.230286%)" offset="0.824219"/><stop stop-opacity="1" stop-color="rgb(29.814148%, 55.923462%, 28.007507%)" offset="0.828125"/><stop stop-opacity="1" stop-color="rgb(29.515076%, 55.737305%, 27.784729%)" offset="0.832031"/><stop stop-opacity="1" stop-color="rgb(29.216003%, 55.552673%, 27.563477%)" offset="0.835937"/><stop stop-opacity="1" stop-color="rgb(28.916931%, 55.366516%, 27.340698%)" offset="0.839844"/><stop stop-opacity="1" stop-color="rgb(28.617859%, 55.180359%, 27.11792%)" offset="0.84375"/><stop stop-opacity="1" stop-color="rgb(28.318787%, 54.994202%, 26.895142%)" offset="0.847656"/><stop stop-opacity="1" stop-color="rgb(28.02124%, 54.80957%, 26.672363%)" offset="0.851562"/><stop stop-opacity="1" stop-color="rgb(27.722168%, 54.623413%, 26.449585%)" offset="0.855469"/><stop stop-opacity="1" stop-color="rgb(27.423096%, 54.438782%, 26.226807%)" offset="0.859375"/><stop stop-opacity="1" stop-color="rgb(27.124023%, 54.252625%, 26.004028%)" offset="0.863281"/><stop stop-opacity="1" stop-color="rgb(26.824951%, 54.067993%, 25.78125%)" offset="0.867187"/><stop stop-opacity="1" stop-color="rgb(26.525879%, 53.881836%, 25.558472%)" offset="0.871094"/><stop stop-opacity="1" stop-color="rgb(26.226807%, 53.697205%, 25.335693%)" offset="0.875"/><stop stop-opacity="1" stop-color="rgb(25.927734%, 53.511047%, 25.112915%)" offset="0.878906"/><stop stop-opacity="1" stop-color="rgb(25.630188%, 53.32489%, 24.890137%)" offset="0.882812"/><stop stop-opacity="1" stop-color="rgb(25.331116%, 53.138733%, 24.667358%)" offset="0.886719"/><stop stop-opacity="1" stop-color="rgb(25.032043%, 52.954102%, 24.44458%)" offset="0.890625"/><stop stop-opacity="1" stop-color="rgb(24.732971%, 52.767944%, 24.221802%)" offset="0.894531"/><stop stop-opacity="1" stop-color="rgb(24.433899%, 52.583313%, 24.000549%)" offset="0.898437"/><stop stop-opacity="1" stop-color="rgb(24.36676%, 52.540588%, 23.950195%)" offset="0.90625"/><stop stop-opacity="1" stop-color="rgb(24.299622%, 52.49939%, 23.899841%)" offset="0.9375"/><stop stop-opacity="1" stop-color="rgb(24.299622%, 52.49939%, 23.899841%)" offset="1"/></linearGradient></defs><g clip-path="url(#7fe89f2b15)"><path fill="#689f63" d="M 185.347656 302.0625 C 184.109375 302.0625 182.882812 301.738281 181.796875 301.117188 L 170.492188 294.429688 C 168.800781 293.488281 169.625 293.152344 170.183594 292.960938 C 172.433594 292.171875 172.890625 291.996094 175.292969 290.632812 C 175.546875 290.488281 175.878906 290.539062 176.136719 290.691406 L 184.820312 295.839844 C 185.136719 296.007812 185.582031 296.007812 185.871094 295.839844 L 219.738281 276.316406 C 220.050781 276.136719 220.253906 275.773438 220.253906 275.398438 L 220.253906 236.367188 C 220.253906 235.976562 220.050781 235.628906 219.730469 235.433594 L 185.878906 215.925781 C 185.566406 215.742188 185.148438 215.742188 184.835938 215.925781 L 150.988281 235.433594 C 150.660156 235.621094 150.453125 235.984375 150.453125 236.359375 L 150.453125 275.390625 C 150.453125 275.765625 150.65625 276.121094 150.980469 276.296875 L 160.253906 281.648438 C 165.289062 284.164062 168.367188 281.199219 168.367188 278.21875 L 168.367188 239.695312 C 168.367188 239.144531 168.796875 238.71875 169.347656 238.71875 L 173.636719 238.71875 C 174.171875 238.71875 174.613281 239.144531 174.613281 239.695312 L 174.613281 278.238281 C 174.613281 284.941406 170.949219 288.796875 164.585938 288.796875 C 162.625 288.796875 161.082031 288.796875 156.777344 286.679688 L 147.894531 281.5625 C 145.699219 280.292969 144.339844 277.921875 144.339844 275.390625 L 144.339844 236.359375 C 144.339844 233.816406 145.699219 231.445312 147.894531 230.195312 L 181.792969 210.660156 C 183.9375 209.449219 186.785156 209.449219 188.914062 210.660156 L 222.769531 230.203125 C 224.957031 231.464844 226.324219 233.828125 226.324219 236.367188 L 226.324219 275.398438 C 226.324219 277.933594 224.957031 280.292969 222.769531 281.5625 L 188.914062 301.097656 C 187.828125 301.722656 186.601562 302.046875 185.34375 302.046875 " fill-opacity="1" fill-rule="nonzero"/></g><path fill="#689f63" d="M 195.808594 275.167969 C 180.992188 275.167969 177.882812 268.375 177.882812 262.675781 C 177.882812 262.132812 178.320312 261.699219 178.867188 261.699219 L 183.238281 261.699219 C 183.722656 261.699219 184.128906 262.050781 184.207031 262.527344 C 184.867188 266.980469 186.832031 269.226562 195.792969 269.226562 C 202.929688 269.226562 205.964844 267.617188 205.964844 263.835938 C 205.964844 261.660156 205.101562 260.042969 194.015625 258.957031 C 184.738281 258.042969 179.007812 256.003906 179.007812 248.59375 C 179.007812 241.769531 184.773438 237.707031 194.429688 237.707031 C 205.269531 237.707031 210.644531 241.464844 211.324219 249.542969 C 211.347656 249.824219 211.246094 250.09375 211.0625 250.296875 C 210.875 250.492188 210.613281 250.609375 210.339844 250.609375 L 205.941406 250.609375 C 205.484375 250.609375 205.085938 250.289062 204.992188 249.847656 C 203.933594 245.164062 201.371094 243.667969 194.414062 243.667969 C 186.621094 243.667969 185.714844 246.375 185.714844 248.410156 C 185.714844 250.871094 186.78125 251.59375 197.292969 252.980469 C 207.703125 254.359375 212.644531 256.308594 212.644531 263.617188 C 212.644531 270.980469 206.492188 275.207031 195.761719 275.207031 M 237.007812 233.8125 L 238.144531 233.8125 C 239.078125 233.8125 239.257812 233.160156 239.257812 232.777344 C 239.257812 231.777344 238.570312 231.777344 238.1875 231.777344 L 237.019531 231.777344 Z M 235.628906 230.609375 L 238.144531 230.609375 C 239.011719 230.609375 240.707031 230.609375 240.707031 232.542969 C 240.707031 233.886719 239.839844 234.167969 239.324219 234.335938 C 240.332031 234.402344 240.398438 235.0625 240.535156 235.996094 C 240.605469 236.578125 240.714844 237.585938 240.917969 237.925781 L 239.367188 237.925781 C 239.324219 237.585938 239.085938 235.726562 239.085938 235.625 C 238.984375 235.207031 238.839844 235.003906 238.324219 235.003906 L 237.042969 235.003906 L 237.042969 237.933594 L 235.628906 237.933594 Z M 232.601562 234.25 C 232.601562 237.28125 235.050781 239.738281 238.0625 239.738281 C 241.09375 239.738281 243.546875 237.230469 243.546875 234.25 C 243.546875 231.210938 241.0625 228.796875 238.050781 228.796875 C 235.085938 228.796875 232.59375 231.179688 232.59375 234.242188 M 244.597656 234.269531 C 244.597656 237.859375 241.65625 240.789062 238.070312 240.789062 C 234.507812 240.789062 231.542969 237.890625 231.542969 234.269531 C 231.542969 230.578125 234.578125 227.75 238.070312 227.75 C 241.585938 227.75 244.589844 230.585938 244.589844 234.269531 " fill-opacity="1" fill-rule="nonzero"/><g clip-path="url(#01ecc7718a)"><path fill="#333333" d="M 80.476562 149.332031 C 80.476562 147.777344 79.65625 146.34375 78.308594 145.570312 L 42.402344 124.9375 C 41.796875 124.582031 41.117188 124.394531 40.429688 124.367188 L 40.058594 124.367188 C 39.371094 124.394531 38.691406 124.582031 38.074219 124.9375 L 2.171875 145.570312 C 0.835938 146.347656 0 147.78125 0 149.339844 L 0.078125 204.917969 C 0.078125 205.6875 0.476562 206.40625 1.15625 206.789062 C 1.816406 207.195312 2.648438 207.195312 3.308594 206.789062 L 24.652344 194.578125 C 26 193.777344 26.824219 192.359375 26.824219 190.820312 L 26.824219 164.855469 C 26.824219 163.304688 27.644531 161.875 28.988281 161.101562 L 38.078125 155.875 C 38.753906 155.484375 39.492188 155.292969 40.246094 155.292969 C 40.988281 155.292969 41.746094 155.484375 42.402344 155.875 L 51.488281 161.101562 C 52.832031 161.871094 53.65625 163.300781 53.65625 164.851562 L 53.65625 190.8125 C 53.65625 192.355469 54.492188 193.777344 55.832031 194.574219 L 77.164062 206.773438 C 77.832031 207.171875 78.667969 207.171875 79.332031 206.773438 C 79.992188 206.394531 80.410156 205.675781 80.410156 204.902344 Z M 249.90625 178.269531 C 249.90625 178.65625 249.703125 179.015625 249.363281 179.207031 L 237.03125 186.308594 C 236.699219 186.5 236.285156 186.5 235.949219 186.308594 L 223.617188 179.207031 C 223.277344 179.015625 223.074219 178.65625 223.074219 178.269531 L 223.074219 164.050781 C 223.074219 163.660156 223.277344 163.304688 223.605469 163.109375 L 235.933594 155.996094 C 236.273438 155.804688 236.6875 155.804688 237.027344 155.996094 L 249.359375 163.109375 C 249.699219 163.304688 249.902344 163.660156 249.902344 164.050781 Z M 253.238281 72.9375 C 252.566406 72.5625 251.746094 72.574219 251.082031 72.960938 C 250.421875 73.351562 250.011719 74.0625 250.011719 74.832031 L 250.011719 129.867188 C 250.011719 130.410156 249.722656 130.910156 249.253906 131.179688 C 248.789062 131.453125 248.207031 131.453125 247.738281 131.179688 L 238.742188 126.007812 C 237.402344 125.234375 235.753906 125.234375 234.410156 126.007812 L 198.492188 146.710938 C 197.148438 147.480469 196.320312 148.914062 196.320312 150.453125 L 196.320312 191.875 C 196.320312 193.425781 197.148438 194.847656 198.492188 195.625 L 234.410156 216.34375 C 235.75 217.117188 237.402344 217.117188 238.746094 216.34375 L 274.664062 195.617188 C 276.003906 194.839844 276.835938 193.417969 276.835938 191.867188 L 276.835938 88.636719 C 276.835938 87.0625 275.980469 85.617188 274.605469 84.851562 Z M 372.84375 163.675781 C 374.179688 162.902344 375 161.472656 375 159.929688 L 375 149.894531 C 375 148.347656 374.175781 146.921875 372.839844 146.144531 L 337.152344 125.453125 C 335.804688 124.671875 334.152344 124.671875 332.804688 125.453125 L 296.894531 146.15625 C 295.546875 146.933594 294.726562 148.355469 294.726562 149.90625 L 294.726562 191.308594 C 294.726562 192.867188 295.5625 194.308594 296.910156 195.078125 L 332.589844 215.390625 C 333.90625 216.144531 335.515625 216.152344 336.847656 215.414062 L 358.429688 203.433594 C 359.109375 203.054688 359.539062 202.332031 359.539062 201.554688 C 359.539062 200.777344 359.125 200.046875 358.445312 199.667969 L 322.316406 178.957031 C 321.640625 178.574219 321.222656 177.855469 321.222656 177.085938 L 321.222656 164.097656 C 321.222656 163.320312 321.632812 162.605469 322.308594 162.21875 L 333.550781 155.742188 C 334.21875 155.351562 335.042969 155.351562 335.710938 155.742188 L 346.960938 162.21875 C 347.628906 162.601562 348.046875 163.320312 348.046875 164.089844 L 348.046875 174.300781 C 348.046875 175.074219 348.460938 175.792969 349.128906 176.183594 C 349.800781 176.5625 350.632812 176.5625 351.300781 176.175781 Z M 372.84375 163.675781 " fill-opacity="1" fill-rule="evenodd"/></g><path fill="#689f63" d="M 334.453125 161.738281 C 334.707031 161.589844 335.027344 161.589844 335.285156 161.738281 L 342.175781 165.710938 C 342.433594 165.859375 342.589844 166.132812 342.589844 166.429688 L 342.589844 174.378906 C 342.589844 174.675781 342.433594 174.949219 342.175781 175.097656 L 335.285156 179.070312 C 335.027344 179.21875 334.707031 179.21875 334.453125 179.070312 L 327.566406 175.097656 C 327.300781 174.949219 327.140625 174.675781 327.140625 174.378906 L 327.140625 166.429688 C 327.140625 166.132812 327.292969 165.859375 327.554688 165.710938 Z M 334.453125 161.738281 " fill-opacity="1" fill-rule="evenodd"/><g clip-path="url(#6b5d6ab306)"><g clip-path="url(#8e52b19f3d)"><g clip-path="url(#b4d3e267e1)"><path fill="url(#290cc03710)" d="M 214.519531 142.753906 L 113.882812 93.480469 L 62.285156 198.621094 L 162.917969 247.894531 Z M 214.519531 142.753906 " fill-rule="nonzero"/></g></g></g><g clip-path="url(#40c2f15dd1)"><g clip-path="url(#041ee0e5ce)"><g clip-path="url(#a41d87d967)"><path fill="url(#181aaad080)" d="M 55.742188 157.320312 L 126.808594 253.390625 L 220.789062 184.03125 L 149.722656 87.960938 Z M 55.742188 157.320312 " fill-rule="nonzero"/></g></g></g><g clip-path="url(#ba68548990)"><g clip-path="url(#979c876ec5)"><path fill="url(#180b86b248)" d="M 100.636719 125.089844 L 100.636719 216.050781 L 178.355469 216.050781 L 178.355469 125.089844 Z M 100.636719 125.089844 " fill-rule="nonzero"/></g></g></svg>