<svg xmlns="http://www.w3.org/2000/svg" xmlns:xlink="http://www.w3.org/1999/xlink" width="500" zoomAndPan="magnify" viewBox="0 0 375 374.999991" height="500" preserveAspectRatio="xMidYMid meet" version="1.0"><defs><clipPath id="4712331c4b"><path d="M 0 24.546875 L 375 24.546875 L 375 350.796875 L 0 350.796875 Z M 0 24.546875 " clip-rule="nonzero"/></clipPath></defs><path fill="#61dafb" d="M 220.148438 187.679688 C 220.148438 188.75 220.097656 189.816406 219.992188 190.882812 C 219.886719 191.949219 219.730469 193.003906 219.519531 194.054688 C 219.3125 195.105469 219.054688 196.140625 218.742188 197.167969 C 218.433594 198.191406 218.074219 199.195312 217.664062 200.1875 C 217.253906 201.175781 216.796875 202.140625 216.292969 203.085938 C 215.789062 204.03125 215.242188 204.945312 214.644531 205.835938 C 214.050781 206.726562 213.417969 207.585938 212.738281 208.414062 C 212.058594 209.242188 211.34375 210.03125 210.585938 210.789062 C 209.828125 211.546875 209.039062 212.265625 208.210938 212.945312 C 207.386719 213.621094 206.527344 214.257812 205.640625 214.855469 C 204.75 215.449219 203.832031 216 202.890625 216.503906 C 201.949219 217.007812 200.980469 217.464844 199.992188 217.875 C 199.007812 218.285156 198 218.644531 196.976562 218.957031 C 195.953125 219.265625 194.917969 219.527344 193.871094 219.734375 C 192.820312 219.941406 191.765625 220.101562 190.699219 220.207031 C 189.636719 220.308594 188.570312 220.363281 187.5 220.363281 C 186.429688 220.363281 185.363281 220.308594 184.300781 220.207031 C 183.234375 220.101562 182.179688 219.941406 181.128906 219.734375 C 180.082031 219.527344 179.046875 219.265625 178.023438 218.957031 C 177 218.644531 175.992188 218.285156 175.003906 217.875 C 174.019531 217.464844 173.050781 217.007812 172.109375 216.503906 C 171.167969 216 170.25 215.449219 169.359375 214.855469 C 168.472656 214.257812 167.613281 213.621094 166.789062 212.945312 C 165.960938 212.265625 165.171875 211.546875 164.414062 210.789062 C 163.65625 210.03125 162.941406 209.242188 162.261719 208.414062 C 161.582031 207.585938 160.949219 206.726562 160.355469 205.835938 C 159.757812 204.945312 159.210938 204.03125 158.707031 203.085938 C 158.203125 202.140625 157.746094 201.175781 157.335938 200.1875 C 156.925781 199.195312 156.566406 198.191406 156.257812 197.167969 C 155.945312 196.140625 155.6875 195.105469 155.480469 194.054688 C 155.269531 193.003906 155.113281 191.949219 155.007812 190.882812 C 154.902344 189.816406 154.851562 188.75 154.851562 187.679688 C 154.851562 186.609375 154.902344 185.539062 155.007812 184.476562 C 155.113281 183.410156 155.269531 182.351562 155.480469 181.300781 C 155.6875 180.253906 155.945312 179.214844 156.257812 178.191406 C 156.566406 177.167969 156.925781 176.160156 157.335938 175.171875 C 157.746094 174.183594 158.203125 173.214844 158.707031 172.269531 C 159.210938 171.328125 159.757812 170.410156 160.355469 169.519531 C 160.949219 168.628906 161.582031 167.769531 162.261719 166.945312 C 162.941406 166.117188 163.65625 165.324219 164.414062 164.566406 C 165.171875 163.808594 165.960938 163.09375 166.789062 162.414062 C 167.613281 161.734375 168.472656 161.097656 169.359375 160.503906 C 170.25 159.90625 171.167969 159.359375 172.109375 158.855469 C 173.050781 158.347656 174.019531 157.890625 175.003906 157.480469 C 175.992188 157.074219 177 156.710938 178.023438 156.402344 C 179.046875 156.089844 180.082031 155.832031 181.128906 155.621094 C 182.179688 155.414062 183.234375 155.257812 184.300781 155.152344 C 185.363281 155.046875 186.429688 154.996094 187.5 154.996094 C 188.570312 154.996094 189.636719 155.046875 190.699219 155.152344 C 191.765625 155.257812 192.820312 155.414062 193.871094 155.621094 C 194.917969 155.832031 195.953125 156.089844 196.976562 156.402344 C 198 156.710938 199.007812 157.074219 199.992188 157.480469 C 200.980469 157.890625 201.949219 158.347656 202.890625 158.855469 C 203.832031 159.359375 204.75 159.90625 205.640625 160.503906 C 206.527344 161.097656 207.386719 161.734375 208.210938 162.414062 C 209.039062 163.09375 209.828125 163.808594 210.585938 164.566406 C 211.34375 165.324219 212.058594 166.117188 212.738281 166.945312 C 213.417969 167.769531 214.050781 168.628906 214.644531 169.519531 C 215.242188 170.410156 215.789062 171.328125 216.292969 172.269531 C 216.796875 173.214844 217.253906 174.183594 217.664062 175.171875 C 218.074219 176.160156 218.433594 177.167969 218.742188 178.191406 C 219.054688 179.214844 219.3125 180.253906 219.519531 181.300781 C 219.730469 182.351562 219.886719 183.410156 219.992188 184.476562 C 220.097656 185.539062 220.148438 186.609375 220.148438 187.679688 Z M 220.148438 187.679688 " fill-opacity="1" fill-rule="nonzero"/><path stroke-linecap="butt" transform="matrix(15.926229, 0, 0, 15.94341, 187.499992, 187.678478)" fill="none" stroke-linejoin="miter" d="M 10.999937 0.0000758573 C 10.999937 0.0686779 10.995522 0.137525 10.986692 0.206127 C 10.977862 0.274729 10.964618 0.343331 10.946958 0.411688 C 10.929298 0.480045 10.907469 0.548157 10.88098 0.616269 C 10.854491 0.684381 10.823832 0.752003 10.788758 0.81938 C 10.753439 0.886757 10.714195 0.953889 10.670292 1.020531 C 10.626633 1.087173 10.57856 1.153325 10.526317 1.219232 C 10.474075 1.284894 10.417662 1.35031 10.35708 1.414992 C 10.296253 1.479674 10.231501 1.543866 10.16258 1.607323 C 10.093904 1.67078 10.020813 1.733502 9.943798 1.795734 C 9.867028 1.857965 9.786088 1.919217 9.701224 1.979979 C 9.61636 2.040496 9.527572 2.100277 9.435104 2.159324 C 9.342392 2.218126 9.246245 2.276193 9.146175 2.333279 C 9.046104 2.390611 8.942599 2.446718 8.83517 2.501844 C 8.727987 2.557216 8.617369 2.611362 8.503073 2.664529 C 8.389022 2.717696 8.271291 2.769637 8.150372 2.820599 C 8.029454 2.87156 7.905591 2.921297 7.778296 2.969808 C 7.651 3.018564 7.520515 3.065851 7.387087 3.111912 C 7.25366 3.158219 7.117534 3.203055 6.97822 3.246666 C 6.839151 3.290277 6.697384 3.332419 6.552674 3.37358 C 6.408209 3.414496 6.261046 3.453942 6.111185 3.492163 C 5.96157 3.530384 5.809501 3.567136 5.655225 3.602417 C 5.500704 3.637698 5.344221 3.671754 5.185285 3.704095 C 5.026595 3.736436 4.865942 3.767306 4.703081 3.796707 C 4.540466 3.826108 4.375889 3.854039 4.209595 3.880255 C 4.043301 3.906715 3.87529 3.931216 3.705808 3.954492 C 3.536325 3.977523 3.365371 3.999083 3.19319 4.019174 C 3.020764 4.039019 2.847357 4.057395 2.672724 4.074055 C 2.498091 4.090716 2.322476 4.105906 2.145881 4.119382 C 1.969531 4.132612 1.792199 4.144372 1.614132 4.154663 C 1.436065 4.164708 1.257262 4.173038 1.078214 4.179654 C 0.898921 4.186514 0.719627 4.191659 0.539843 4.194844 C 0.360059 4.198274 0.18003 4.199989 0.000000490543 4.199989 C -0.180029 4.199989 -0.360058 4.198274 -0.539842 4.194844 C -0.719626 4.191659 -0.89892 4.186514 -1.078213 4.179654 C -1.257261 4.173038 -1.436064 4.164708 -1.614131 4.154663 C -1.792198 4.144372 -1.96953 4.132612 -2.14588 4.119382 C -2.322475 4.105906 -2.49809 4.090716 -2.672723 4.074055 C -2.847356 4.057395 -3.020763 4.039019 -3.193189 4.019174 C -3.36537 3.999083 -3.536324 3.977523 -3.705807 3.954492 C -3.875289 3.931216 -4.0433 3.906715 -4.209594 3.880255 C -4.375888 3.854039 -4.540465 3.826108 -4.70308 3.796707 C -4.865941 3.767306 -5.026594 3.736436 -5.185284 3.704095 C -5.34422 3.671754 -5.500703 3.637698 -5.655224 3.602417 C -5.8095 3.567136 -5.961569 3.530384 -6.111184 3.492163 C -6.261045 3.453942 -6.408208 3.414496 -6.552673 3.37358 C -6.697383 3.332419 -6.83915 3.290277 -6.978219 3.246666 C -7.117533 3.203055 -7.253659 3.158219 -7.387086 3.111912 C -7.520514 3.065851 -7.650999 3.018564 -7.778295 2.969808 C -7.90559 2.921297 -8.029453 2.87156 -8.150371 2.820599 C -8.27129 2.769637 -8.389021 2.717696 -8.503072 2.664529 C -8.617368 2.611362 -8.727986 2.557216 -8.835169 2.501844 C -8.942598 2.446718 -9.046103 2.390611 -9.146174 2.333279 C -9.246244 2.276193 -9.342391 2.218126 -9.435104 2.159324 C -9.527571 2.100277 -9.616359 2.040496 -9.701223 1.979979 C -9.786087 1.919217 -9.867027 1.857965 -9.943797 1.795734 C -10.020812 1.733502 -10.093903 1.67078 -10.162579 1.607323 C -10.2315 1.543866 -10.296252 1.479674 -10.357079 1.414992 C -10.417661 1.35031 -10.474074 1.284894 -10.526316 1.219232 C -10.578559 1.153325 -10.626632 1.087173 -10.670291 1.020531 C -10.714194 0.953889 -10.753438 0.886757 -10.788757 0.81938 C -10.823831 0.752003 -10.85449 0.684381 -10.880979 0.616269 C -10.907468 0.548157 -10.929297 0.480045 -10.946957 0.411688 C -10.964617 0.343331 -10.977861 0.274729 -10.986691 0.206127 C -10.995521 0.137525 -10.999936 0.0686779 -10.999936 0.0000758573 C -10.999936 -0.0687712 -10.995521 -0.137373 -10.986691 -0.205975 C -10.977861 -0.274822 -10.964617 -0.343179 -10.946957 -0.411781 C -10.929297 -0.480138 -10.907468 -0.54825 -10.880979 -0.616362 C -10.85449 -0.684229 -10.823831 -0.751851 -10.788757 -0.819473 C -10.753438 -0.88685 -10.714194 -0.953737 -10.670291 -1.020624 C -10.626632 -1.087266 -10.578559 -1.153418 -10.526316 -1.21908 C -10.474074 -1.284987 -10.417661 -1.350159 -10.357079 -1.414841 C -10.296252 -1.479768 -10.2315 -1.543714 -10.162579 -1.607171 C -10.093903 -1.670873 -10.020812 -1.733595 -9.943797 -1.795827 C -9.867027 -1.857814 -9.786087 -1.91931 -9.701223 -1.979827 C -9.616359 -2.040589 -9.527571 -2.100371 -9.435104 -2.159173 C -9.342391 -2.218219 -9.246244 -2.276286 -9.146174 -2.333373 C -9.046103 -2.390459 -8.942598 -2.446811 -8.835169 -2.501938 C -8.727986 -2.557064 -8.617368 -2.611211 -8.503072 -2.664377 C -8.389021 -2.717544 -8.27129 -2.76973 -8.150371 -2.820447 C -8.029453 -2.871408 -7.90559 -2.921145 -7.778295 -2.969901 C -7.650999 -3.018413 -7.520514 -3.065944 -7.387086 -3.112005 C -7.253659 -3.158067 -7.117533 -3.203148 -6.978219 -3.246759 C -6.83915 -3.290371 -6.697383 -3.332512 -6.552673 -3.373428 C -6.408208 -3.414344 -6.261045 -3.454036 -6.111184 -3.492257 C -5.961569 -3.530478 -5.8095 -3.567229 -5.655224 -3.60251 C -5.500703 -3.637791 -5.34422 -3.671602 -5.185284 -3.704188 C -5.026594 -3.736529 -4.865941 -3.7674 -4.70308 -3.796801 C -4.540465 -3.826201 -4.375888 -3.853887 -4.209594 -3.880348 C -4.0433 -3.906564 -3.875289 -3.93131 -3.705807 -3.954585 C -3.536324 -3.977616 -3.36537 -3.999177 -3.193189 -4.019267 C -3.020763 -4.039113 -2.847356 -4.057488 -2.672723 -4.074149 C -2.49809 -4.090809 -2.322475 -4.106 -2.14588 -4.11923 C -1.96953 -4.132705 -1.792198 -4.144466 -1.614131 -4.154511 C -1.436064 -4.164556 -1.257261 -4.173132 -1.078213 -4.179747 C -0.89892 -4.186607 -0.719626 -4.191507 -0.539842 -4.194937 C -0.360058 -4.198367 -0.180029 -4.200082 0.000000490543 -4.200082 C 0.18003 -4.200082 0.360059 -4.198367 0.539843 -4.194937 C 0.719627 -4.191507 0.898921 -4.186607 1.078214 -4.179747 C 1.257262 -4.173132 1.436065 -4.164556 1.614132 -4.154511 C 1.792199 -4.144466 1.969531 -4.132705 2.145881 -4.11923 C 2.322476 -4.106 2.498091 -4.090809 2.672724 -4.074149 C 2.847357 -4.057488 3.020764 -4.039113 3.19319 -4.019267 C 3.365371 -3.999177 3.536325 -3.977616 3.705808 -3.954585 C 3.87529 -3.93131 4.043301 -3.906564 4.209595 -3.880348 C 4.375889 -3.853887 4.540466 -3.826201 4.703081 -3.796801 C 4.865942 -3.7674 5.026595 -3.736529 5.185285 -3.704188 C 5.344221 -3.671602 5.500704 -3.637791 5.655225 -3.60251 C 5.809501 -3.567229 5.96157 -3.530478 6.111185 -3.492257 C 6.261046 -3.454036 6.408209 -3.414344 6.552674 -3.373428 C 6.697384 -3.332512 6.839151 -3.290371 6.97822 -3.246759 C 7.117534 -3.203148 7.25366 -3.158067 7.387087 -3.112005 C 7.520515 -3.065944 7.651 -3.018413 7.778296 -2.969901 C 7.905591 -2.921145 8.029454 -2.871408 8.150372 -2.820447 C 8.271291 -2.76973 8.389022 -2.717544 8.503073 -2.664377 C 8.617369 -2.611211 8.727987 -2.557064 8.83517 -2.501938 C 8.942599 -2.446811 9.046104 -2.390459 9.146175 -2.333373 C 9.246245 -2.276286 9.342392 -2.218219 9.435104 -2.159173 C 9.527572 -2.100371 9.61636 -2.040589 9.701224 -1.979827 C 9.786088 -1.91931 9.867028 -1.857814 9.943798 -1.795827 C 10.020813 -1.733595 10.093904 -1.670873 10.16258 -1.607171 C 10.231501 -1.543714 10.296253 -1.479768 10.35708 -1.414841 C 10.417662 -1.350159 10.474075 -1.284987 10.526317 -1.21908 C 10.57856 -1.153418 10.626633 -1.087266 10.670292 -1.020624 C 10.714195 -0.953737 10.753439 -0.88685 10.788758 -0.819473 C 10.823832 -0.751851 10.854491 -0.684229 10.88098 -0.616362 C 10.907469 -0.54825 10.929298 -0.480138 10.946958 -0.411781 C 10.964618 -0.343179 10.977862 -0.274822 10.986692 -0.205975 C 10.995522 -0.137373 10.999937 -0.0687712 10.999937 0.0000758573 Z M 10.999937 0.0000758573 " stroke="#61dafb" stroke-width="1" stroke-opacity="1" stroke-miterlimit="4"/><g clip-path="url(#4712331c4b)"><path stroke-linecap="butt" transform="matrix(7.963115, 13.807398, -13.792518, 7.971705, 187.499992, 187.678478)" fill="none" stroke-linejoin="miter" d="M 10.999916 -0.0000121499 C 11.000033 0.0688768 10.995562 0.137383 10.986682 0.206175 C 10.977925 0.274755 10.964669 0.343286 10.947037 0.411557 C 10.929282 0.48004 10.907363 0.548385 10.880857 0.616346 C 10.854685 0.684218 10.823802 0.751919 10.788543 0.819359 C 10.753497 0.886922 10.713985 0.953888 10.670432 1.020505 C 10.626543 1.087211 10.578614 1.153566 10.526342 1.219114 C 10.474159 1.284996 10.417511 1.350282 10.356944 1.415006 C 10.296378 1.479729 10.23168 1.543767 10.162729 1.607332 C 10.093779 1.670897 10.02082 1.733564 9.943942 1.795667 C 9.866942 1.857983 9.786056 1.919189 9.701252 1.979831 C 9.616236 2.040352 9.527636 2.100219 9.435028 2.159188 C 9.342419 2.218157 9.246138 2.276138 9.146061 2.333344 C 9.046196 2.390672 8.942568 2.446677 8.835356 2.502029 C 8.728054 2.557047 8.617292 2.611199 8.503069 2.664485 C 8.388968 2.71756 8.271406 2.769768 8.150416 2.820565 C 8.029638 2.871483 7.905522 2.921324 7.77819 2.969874 C 7.650858 3.018425 7.520522 3.065808 7.387183 3.112023 C 7.253843 3.158238 7.117411 3.20295 6.978399 3.24674 C 6.839298 3.290195 6.697193 3.332482 6.552754 3.373421 C 6.40798 3.414451 6.260995 3.45392 6.111341 3.492132 C 5.961687 3.530344 5.809487 3.567086 5.655165 3.602603 C 5.500753 3.637785 5.34422 3.671741 5.185263 3.704016 C 5.026518 3.736413 4.865774 3.767372 4.703153 3.796682 C 4.54041 3.826204 4.37579 3.854076 4.209506 3.880421 C 4.043345 3.906553 3.875397 3.931371 3.705906 3.954448 C 3.536294 3.977738 3.365474 3.999199 3.193202 4.019254 C 3.02084 4.038975 2.847451 4.057536 2.672643 4.074144 C 2.498047 4.090875 2.322456 4.105899 2.146082 4.119339 C 1.969496 4.132655 1.792128 4.144387 1.613977 4.154535 C 1.435827 4.164682 1.257351 4.172943 1.078305 4.179741 C 0.899046 4.186417 0.719552 4.191541 0.53961 4.19499 C 0.360003 4.198349 0.179949 4.200034 -0.00000649422 4.200076 C -0.179962 4.200119 -0.36003 4.198397 -0.539664 4.194943 C -0.719633 4.19158 -0.898956 4.186606 -1.078057 4.179779 C -1.25728 4.173164 -1.435947 4.164604 -1.61409 4.154648 C -1.792111 4.144479 -1.969485 4.132701 -2.145878 4.119223 C -2.322606 4.105836 -2.498141 4.090871 -2.672694 4.074208 C -2.84746 4.057421 -3.02082 4.039181 -3.1932 4.019241 C -3.365456 3.999089 -3.53643 3.977695 -3.705753 3.954422 C -3.875199 3.931361 -4.043116 3.906634 -4.209506 3.88024 C -4.375683 3.853968 -4.540333 3.82603 -4.703029 3.79667 C -4.865726 3.76731 -5.026683 3.736406 -5.185352 3.70399 C -5.344144 3.671786 -5.500738 3.637737 -5.655168 3.602387 C -5.809597 3.567038 -5.961527 3.5303 -6.111293 3.492263 C -6.260936 3.454013 -6.408079 3.414374 -6.552723 3.373346 C -6.697277 3.332653 -6.839209 3.290359 -6.978308 3.246585 C -7.117528 3.203024 -7.253702 3.158107 -7.387165 3.111922 C -7.520415 3.065861 -7.650954 3.018532 -7.778112 2.969758 C -7.905392 2.921195 -8.029536 2.871612 -8.150511 2.820459 C -8.271396 2.769641 -8.389023 2.717589 -8.503179 2.664426 C -8.617335 2.611262 -8.728143 2.5572 -8.835145 2.501936 C -8.942482 2.446762 -9.046136 2.390599 -9.146107 2.333448 C -9.246078 2.276296 -9.342366 2.218155 -9.435094 2.159237 C -9.527487 2.10023 -9.616319 2.040446 -9.701044 1.979918 C -9.785982 1.919268 -9.866812 1.857873 -9.943869 1.795825 C -10.020804 1.733564 -10.093754 1.670772 -10.162596 1.607235 C -10.231439 1.543699 -10.296297 1.479631 -10.357048 1.414819 C -10.417586 1.35013 -10.47414 1.284909 -10.526374 1.219066 C -10.57873 1.153436 -10.626555 1.087307 -10.670273 1.020434 C -10.714113 0.953773 -10.753544 0.886826 -10.788656 0.819258 C -10.823678 0.752024 -10.854503 0.684381 -10.880797 0.616239 C -10.907425 0.548187 -10.929432 0.479972 -10.947153 0.411682 C -10.96475 0.343179 -10.97785 0.274725 -10.986875 0.206074 C -10.995565 0.137334 -11.000091 0.0687311 -10.999996 -0.0000353461 C -10.999901 -0.0688018 -10.995643 -0.13743 -10.986762 -0.206222 C -10.978005 -0.274802 -10.964749 -0.343334 -10.947117 -0.411604 C -10.929362 -0.480087 -10.907232 -0.54831 -10.880937 -0.616394 C -10.854553 -0.684143 -10.823882 -0.751966 -10.788624 -0.819407 C -10.753365 -0.886847 -10.714065 -0.953936 -10.6703 -1.02043 C -10.626624 -1.087258 -10.578482 -1.153491 -10.526422 -1.219161 C -10.474028 -1.284921 -10.417591 -1.35033 -10.357025 -1.415053 C -10.296246 -1.479654 -10.231548 -1.543692 -10.162597 -1.607257 C -10.093647 -1.670822 -10.0209 -1.733611 -9.944022 -1.795715 C -9.86681 -1.857908 -9.786137 -1.919236 -9.70112 -1.979756 C -9.616316 -2.040399 -9.527504 -2.100144 -9.435108 -2.159235 C -9.3425 -2.218204 -9.246218 -2.276185 -9.146141 -2.333391 C -9.046064 -2.390597 -8.942648 -2.446725 -8.835224 -2.501954 C -8.728135 -2.557094 -8.617372 -2.611246 -8.503149 -2.664533 C -8.388836 -2.717485 -8.271274 -2.769693 -8.150496 -2.820612 C -8.029506 -2.871408 -7.90539 -2.921249 -7.77827 -2.969922 C -7.650938 -3.018472 -7.520602 -3.065855 -7.387051 -3.111948 C -7.253712 -3.158163 -7.117491 -3.202998 -6.978267 -3.246665 C -6.839166 -3.29012 -6.697273 -3.332529 -6.552834 -3.373469 C -6.40806 -3.414498 -6.261075 -3.453968 -6.111209 -3.492057 C -5.961555 -3.530269 -5.809567 -3.567133 -5.655033 -3.602528 C -5.500833 -3.637832 -5.344088 -3.671666 -5.185343 -3.704063 C -5.026598 -3.73646 -4.865854 -3.76742 -4.703234 -3.796729 C -4.540278 -3.826129 -4.375871 -3.854123 -4.209375 -3.880346 C -4.043213 -3.906478 -3.875265 -3.931296 -3.705774 -3.954373 C -3.536162 -3.977663 -3.365342 -3.999124 -3.19307 -4.019179 C -3.020921 -4.039022 -2.847319 -4.057461 -2.672723 -4.074192 C -2.498127 -4.090923 -2.322536 -4.105947 -2.14595 -4.119264 C -1.969365 -4.13258 -1.792208 -4.144435 -1.614058 -4.154582 C -1.435907 -4.16473 -1.257431 -4.17299 -1.078173 -4.179666 C -0.899126 -4.186464 -0.719632 -4.191588 -0.539691 -4.195037 C -0.359872 -4.198274 -0.180029 -4.200081 0.000138373 -4.200001 C 0.180094 -4.200044 0.35995 -4.198445 0.539796 -4.194868 C 0.719553 -4.191627 0.899088 -4.186531 1.078189 -4.179704 C 1.257412 -4.173089 1.435867 -4.164652 1.61401 -4.154695 C 1.79203 -4.144527 1.969405 -4.132748 2.14601 -4.119148 C 2.322526 -4.105883 2.498273 -4.090796 2.672826 -4.074133 C 2.84738 -4.057469 3.020952 -4.039106 3.193119 -4.019289 C 3.365376 -3.999137 3.53635 -3.977743 3.705673 -3.954469 C 3.875331 -3.931286 4.043248 -3.906559 4.209426 -3.880287 C 4.375815 -3.853893 4.540252 -3.826077 4.702949 -3.796717 C 4.865858 -3.767235 5.026602 -3.736453 5.185272 -3.704037 C 5.344276 -3.671711 5.500658 -3.637784 5.655087 -3.602435 C 5.809517 -3.567086 5.961447 -3.530348 6.111212 -3.49231 C 6.261067 -3.453938 6.407999 -3.414422 6.552643 -3.373394 C 6.697409 -3.332578 6.839129 -3.290406 6.978227 -3.246633 C 7.117448 -3.203072 7.253622 -3.158154 7.387085 -3.11197 C 7.520547 -3.065786 7.650874 -3.01858 7.778031 -2.969805 C 7.905524 -2.92112 8.029668 -2.871537 8.15043 -2.820506 C 8.271316 -2.769688 8.388943 -2.717637 8.503099 -2.664473 C 8.617255 -2.61131 8.728063 -2.557247 8.835277 -2.501861 C 8.942614 -2.446687 9.046268 -2.390524 9.146239 -2.333373 C 9.24621 -2.276221 9.342498 -2.21808 9.435014 -2.159285 C 9.527619 -2.100155 9.616239 -2.040494 9.701176 -1.979843 C 9.785901 -1.919315 9.866943 -1.857798 9.944001 -1.79575 C 10.020723 -1.733612 10.093673 -1.670819 10.162728 -1.60716 C 10.231571 -1.543624 10.296217 -1.479679 10.356967 -1.414867 C 10.417506 -1.350177 10.474059 -1.284956 10.526293 -1.219114 C 10.57865 -1.153484 10.626687 -1.087232 10.670193 -1.020482 C 10.714033 -0.953821 10.753464 -0.886874 10.788576 -0.819305 C 10.82381 -0.751949 10.854635 -0.684306 10.880929 -0.616164 C 10.907345 -0.548235 10.929352 -0.480019 10.947072 -0.411729 C 10.96467 -0.343227 10.977982 -0.27465 10.986794 -0.206122 C 10.995485 -0.137381 11.000011 -0.0687786 10.999916 -0.0000121499 Z M 10.999916 -0.0000121499 " stroke="#61dafb" stroke-width="1" stroke-opacity="1" stroke-miterlimit="4"/><path stroke-linecap="butt" transform="matrix(-7.963115, 13.807398, -13.792518, -7.971705, 187.499992, 187.678478)" fill="none" stroke-linejoin="miter" d="M 10.999915 0.0000113002 C 11.00001 0.0687778 10.995484 0.13738 10.986794 0.206121 C 10.977981 0.274649 10.96467 0.343226 10.947072 0.411728 C 10.929351 0.480018 10.907344 0.548234 10.880928 0.616163 C 10.854635 0.684305 10.82381 0.751948 10.788575 0.819304 C 10.753464 0.886873 10.714033 0.95382 10.670192 1.020481 C 10.626687 1.087231 10.57865 1.153483 10.526293 1.219113 C 10.474059 1.284955 10.417505 1.350176 10.356967 1.414866 C 10.296216 1.479678 10.23157 1.543623 10.162728 1.60716 C 10.093673 1.670818 10.020723 1.733611 9.944 1.795749 C 9.866943 1.857798 9.785901 1.919314 9.701176 1.979842 C 9.616238 2.040493 9.527618 2.100154 9.435013 2.159284 C 9.342498 2.218079 9.24621 2.27622 9.146239 2.333372 C 9.046268 2.390524 8.942614 2.446686 8.835277 2.50186 C 8.728062 2.557247 8.617254 2.611309 8.503098 2.664472 C 8.388942 2.717636 8.271315 2.769688 8.15043 2.820505 C 8.029667 2.871536 7.905523 2.92112 7.778031 2.969804 C 7.650873 3.018579 7.520547 3.065785 7.387084 3.111969 C 7.253622 3.158153 7.117447 3.203071 6.978227 3.246632 C 6.839129 3.290405 6.697409 3.332577 6.552642 3.373393 C 6.407998 3.414421 6.261067 3.453937 6.111212 3.49231 C 5.961446 3.530347 5.809516 3.567085 5.655087 3.602434 C 5.500657 3.637783 5.344275 3.671711 5.185271 3.704036 C 5.026602 3.736452 4.865858 3.767234 4.702949 3.796716 C 4.540252 3.826076 4.375815 3.853892 4.209425 3.880286 C 4.043248 3.906558 3.87533 3.931285 3.705672 3.954469 C 3.536349 3.977742 3.365375 3.999136 3.193119 4.019288 C 3.020952 4.039105 2.847379 4.057468 2.672826 4.074132 C 2.498272 4.090795 2.322525 4.105882 2.146009 4.119147 C 1.969404 4.132747 1.79203 4.144526 1.614009 4.154695 C 1.435866 4.164651 1.257412 4.173088 1.078188 4.179703 C 0.899087 4.186531 0.719553 4.191626 0.539796 4.194868 C 0.359949 4.198444 0.180093 4.200043 0.000137883 4.2 C -0.18003 4.20008 -0.359872 4.198273 -0.539691 4.195036 C -0.719633 4.191587 -0.899127 4.186463 -1.078173 4.179665 C -1.257432 4.172989 -1.435907 4.164729 -1.614058 4.154581 C -1.792209 4.144434 -1.969365 4.132579 -2.145951 4.119263 C -2.322536 4.105946 -2.498127 4.090922 -2.672724 4.074191 C -2.84732 4.05746 -3.020921 4.039021 -3.19307 4.019178 C -3.365342 3.999123 -3.536162 3.977662 -3.705775 3.954372 C -3.875265 3.931295 -4.043214 3.906477 -4.209375 3.880345 C -4.375871 3.854123 -4.540279 3.826128 -4.703234 3.796728 C -4.865855 3.767419 -5.026599 3.736459 -5.185343 3.704063 C -5.344088 3.671666 -5.500834 3.637831 -5.655033 3.602527 C -5.809567 3.567133 -5.961555 3.530268 -6.111209 3.492056 C -6.261076 3.453967 -6.408061 3.414498 -6.552835 3.373468 C -6.697274 3.332529 -6.839166 3.290119 -6.978268 3.246664 C -7.117492 3.202997 -7.253712 3.158162 -7.387051 3.111947 C -7.520603 3.065854 -7.650939 3.018472 -7.778271 2.969921 C -7.905391 2.921248 -8.029507 2.871407 -8.150497 2.820611 C -8.271274 2.769693 -8.388836 2.717484 -8.503149 2.664532 C -8.617373 2.611245 -8.728135 2.557093 -8.835224 2.501954 C -8.942648 2.446724 -9.046064 2.390596 -9.146141 2.33339 C -9.246219 2.276185 -9.3425 2.218203 -9.435108 2.159234 C -9.527504 2.100143 -9.616317 2.040398 -9.701121 1.979756 C -9.786137 1.919236 -9.866811 1.857907 -9.944023 1.795714 C -10.0209 1.73361 -10.093647 1.670821 -10.162598 1.607256 C -10.231549 1.543692 -10.296246 1.479654 -10.357025 1.415053 C -10.417592 1.350329 -10.474028 1.28492 -10.526423 1.21916 C -10.578483 1.15349 -10.626624 1.087257 -10.6703 1.020429 C -10.714066 0.953935 -10.753366 0.886846 -10.788624 0.819406 C -10.823883 0.751966 -10.854553 0.684142 -10.880938 0.616393 C -10.907232 0.548309 -10.929363 0.480087 -10.947117 0.411603 C -10.96475 0.343333 -10.978006 0.274801 -10.986763 0.206221 C -10.995643 0.137429 -10.999902 0.068801 -10.999997 0.0000344964 C -11.000092 -0.068732 -10.995565 -0.137334 -10.986875 -0.206075 C -10.97785 -0.274726 -10.964751 -0.34318 -10.947153 -0.411682 C -10.929433 -0.479972 -10.907426 -0.548188 -10.880797 -0.61624 C -10.854504 -0.684382 -10.823679 -0.752025 -10.788657 -0.819258 C -10.753545 -0.886827 -10.714114 -0.953774 -10.670274 -1.020435 C -10.626556 -1.087308 -10.578731 -1.153437 -10.526374 -1.219067 C -10.47414 -1.284909 -10.417586 -1.35013 -10.357048 -1.41482 C -10.296297 -1.479632 -10.23144 -1.5437 -10.162597 -1.607236 C -10.093754 -1.670773 -10.020804 -1.733565 -9.943869 -1.795826 C -9.866812 -1.857874 -9.785982 -1.919269 -9.701045 -1.979919 C -9.61632 -2.040447 -9.527487 -2.100231 -9.435094 -2.159238 C -9.342367 -2.218156 -9.246079 -2.276297 -9.146108 -2.333448 C -9.046137 -2.3906 -8.942483 -2.446763 -8.835146 -2.501937 C -8.728143 -2.557201 -8.617336 -2.611263 -8.50318 -2.664427 C -8.389024 -2.71759 -8.271397 -2.769642 -8.150511 -2.82046 C -8.029536 -2.871612 -7.905392 -2.921196 -7.778112 -2.969759 C -7.650955 -3.018533 -7.520416 -3.065861 -7.387165 -3.111923 C -7.253703 -3.158107 -7.117529 -3.203025 -6.978308 -3.246586 C -6.83921 -3.29036 -6.697278 -3.332654 -6.552723 -3.373347 C -6.408079 -3.414375 -6.260936 -3.454014 -6.111293 -3.492264 C -5.961528 -3.530301 -5.809598 -3.567039 -5.655168 -3.602388 C -5.500739 -3.637737 -5.344144 -3.671787 -5.185352 -3.703991 C -5.026683 -3.736406 -4.865727 -3.767311 -4.70303 -3.796671 C -4.540333 -3.826031 -4.375684 -3.853969 -4.209506 -3.880241 C -4.043117 -3.906635 -3.875199 -3.931362 -3.705754 -3.954423 C -3.536431 -3.977696 -3.365457 -3.99909 -3.1932 -4.019242 C -3.020821 -4.039182 -2.847461 -4.057422 -2.672695 -4.074209 C -2.498141 -4.090872 -2.322607 -4.105837 -2.145879 -4.119224 C -1.969485 -4.132702 -1.792111 -4.14448 -1.614091 -4.154649 C -1.435948 -4.164605 -1.257281 -4.173165 -1.078057 -4.17978 C -0.898957 -4.186607 -0.719634 -4.19158 -0.539665 -4.194944 C -0.360031 -4.198398 -0.179962 -4.20012 -0.00000698476 -4.200077 C 0.179948 -4.200034 0.360003 -4.19835 0.53961 -4.19499 C 0.719552 -4.191541 0.899046 -4.186418 1.078304 -4.179742 C 1.25735 -4.172944 1.435826 -4.164683 1.613977 -4.154536 C 1.792128 -4.144388 1.969496 -4.132656 2.146082 -4.119339 C 2.322455 -4.1059 2.498046 -4.090876 2.672642 -4.074145 C 2.847451 -4.057536 3.02084 -4.038976 3.193201 -4.019255 C 3.365473 -3.999199 3.536293 -3.977739 3.705906 -3.954449 C 3.875396 -3.931371 4.043344 -3.906554 4.209506 -3.880422 C 4.37579 -3.854077 4.54041 -3.826205 4.703153 -3.796683 C 4.865773 -3.767373 5.026517 -3.736414 5.185262 -3.704017 C 5.344219 -3.671742 5.500752 -3.637786 5.655164 -3.602604 C 5.809486 -3.567087 5.961686 -3.530345 6.11134 -3.492133 C 6.260994 -3.453921 6.407979 -3.414452 6.552753 -3.373422 C 6.697192 -3.332483 6.839297 -3.290196 6.978399 -3.246741 C 7.11741 -3.202951 7.253843 -3.158239 7.387182 -3.112024 C 7.520522 -3.065809 7.650857 -3.018426 7.778189 -2.969875 C 7.905521 -2.921325 8.029638 -2.871484 8.150415 -2.820565 C 8.271405 -2.769769 8.388967 -2.71756 8.503068 -2.664486 C 8.617292 -2.6112 8.728054 -2.557048 8.835355 -2.50203 C 8.942567 -2.446678 9.046195 -2.390673 9.14606 -2.333344 C 9.246138 -2.276139 9.342419 -2.218158 9.435027 -2.159189 C 9.527635 -2.100219 9.616235 -2.040352 9.701252 -1.979832 C 9.786056 -1.91919 9.866941 -1.857984 9.943942 -1.795668 C 10.020819 -1.733564 10.093778 -1.670898 10.162729 -1.607333 C 10.23168 -1.543768 10.296377 -1.47973 10.356944 -1.415007 C 10.417511 -1.350283 10.474159 -1.284997 10.526342 -1.219114 C 10.578614 -1.153567 10.626543 -1.087212 10.670431 -1.020506 C 10.713984 -0.953889 10.753496 -0.886922 10.788543 -0.81936 C 10.823802 -0.75192 10.854684 -0.684219 10.880856 -0.616347 C 10.907363 -0.548386 10.929281 -0.480041 10.947036 -0.411558 C 10.964668 -0.343287 10.977924 -0.274755 10.986682 -0.206176 C 10.995562 -0.137383 11.000033 -0.0688777 10.999915 0.0000113002 Z M 10.999915 0.0000113002 " stroke="#61dafb" stroke-width="1" stroke-opacity="1" stroke-miterlimit="4"/></g></svg>