<svg xmlns="http://www.w3.org/2000/svg" xmlns:xlink="http://www.w3.org/1999/xlink" width="500" zoomAndPan="magnify" viewBox="0 0 375 374.999991" height="500" preserveAspectRatio="xMidYMid meet" version="1.0"><path fill="#07b6d5" d="M 183.5625 84.9375 C 123 86.863281 105 130.125 100.875 153.5625 C 106.25 144.875 123.1875 125.8125 148.125 125.8125 C 177.1875 125.8125 199.3125 158.25 212.8125 168.375 C 229.214844 180.675781 262.171875 196.917969 305.4375 183.75 C 339.9375 173.25 355.9375 136.625 359.4375 119.25 C 342.75 141.9375 317.4375 155.5625 286.125 139.5 C 264.5625 128.4375 248.4375 82.875 183.5625 84.9375 Z M 183.5625 84.9375 " fill-opacity="1" fill-rule="nonzero"/><path fill="#07b6d5" d="M 97.875 187.875 C 37.3125 189.800781 19.3125 233.0625 15.1875 256.5 C 20.5625 247.8125 37.5 228.75 62.4375 228.75 C 91.5 228.75 113.625 261.1875 127.125 271.3125 C 143.527344 283.613281 176.484375 299.855469 219.75 286.6875 C 254.25 276.1875 270.25 239.5625 273.75 222.1875 C 257.0625 244.875 231.75 258.5 200.4375 242.4375 C 178.875 231.375 162.75 185.8125 97.875 187.875 Z M 97.875 187.875 " fill-opacity="1" fill-rule="nonzero"/></svg>