<svg xmlns="http://www.w3.org/2000/svg" xmlns:xlink="http://www.w3.org/1999/xlink" width="500" zoomAndPan="magnify" viewBox="0 0 375 374.999991" height="500" preserveAspectRatio="xMidYMid meet" version="1.0"><path fill="#3178c6" d="M 36.621094 0 L 338.378906 0 C 339.578125 0 340.773438 0.0585938 341.96875 0.175781 C 343.160156 0.292969 344.347656 0.46875 345.523438 0.703125 C 346.699219 0.9375 347.863281 1.230469 349.007812 1.578125 C 350.15625 1.925781 351.285156 2.328125 352.394531 2.789062 C 353.5 3.246094 354.585938 3.757812 355.640625 4.324219 C 356.699219 4.890625 357.726562 5.503906 358.722656 6.171875 C 359.722656 6.839844 360.683594 7.550781 361.609375 8.3125 C 362.539062 9.074219 363.425781 9.878906 364.273438 10.726562 C 365.121094 11.574219 365.925781 12.460938 366.6875 13.390625 C 367.449219 14.316406 368.160156 15.277344 368.828125 16.277344 C 369.496094 17.273438 370.109375 18.300781 370.675781 19.359375 C 371.242188 20.414062 371.753906 21.5 372.210938 22.605469 C 372.671875 23.714844 373.074219 24.84375 373.421875 25.992188 C 373.769531 27.136719 374.0625 28.300781 374.296875 29.476562 C 374.53125 30.652344 374.707031 31.839844 374.824219 33.03125 C 374.941406 34.226562 375 35.421875 375 36.621094 L 375 338.378906 C 375 339.578125 374.941406 340.773438 374.824219 341.96875 C 374.707031 343.160156 374.53125 344.347656 374.296875 345.523438 C 374.0625 346.699219 373.769531 347.863281 373.421875 349.007812 C 373.074219 350.15625 372.671875 351.285156 372.210938 352.394531 C 371.753906 353.5 371.242188 354.585938 370.675781 355.640625 C 370.109375 356.699219 369.496094 357.726562 368.828125 358.722656 C 368.160156 359.722656 367.449219 360.683594 366.6875 361.609375 C 365.925781 362.539062 365.121094 363.425781 364.273438 364.273438 C 363.425781 365.121094 362.539062 365.925781 361.609375 366.6875 C 360.683594 367.449219 359.722656 368.160156 358.722656 368.828125 C 357.726562 369.496094 356.699219 370.109375 355.640625 370.675781 C 354.585938 371.242188 353.5 371.753906 352.394531 372.210938 C 351.285156 372.671875 350.15625 373.074219 349.007812 373.421875 C 347.863281 373.769531 346.699219 374.0625 345.523438 374.296875 C 344.347656 374.53125 343.160156 374.707031 341.96875 374.824219 C 340.773438 374.941406 339.578125 375 338.378906 375 L 36.621094 375 C 35.421875 375 34.226562 374.941406 33.03125 374.824219 C 31.839844 374.707031 30.652344 374.53125 29.476562 374.296875 C 28.300781 374.0625 27.136719 373.769531 25.992188 373.421875 C 24.84375 373.074219 23.714844 372.671875 22.605469 372.210938 C 21.5 371.753906 20.414062 371.242188 19.359375 370.675781 C 18.300781 370.109375 17.273438 369.496094 16.277344 368.828125 C 15.277344 368.160156 14.316406 367.449219 13.390625 366.6875 C 12.460938 365.925781 11.574219 365.121094 10.726562 364.273438 C 9.878906 363.425781 9.074219 362.539062 8.3125 361.609375 C 7.550781 360.683594 6.839844 359.722656 6.171875 358.722656 C 5.503906 357.726562 4.890625 356.699219 4.324219 355.640625 C 3.757812 354.585938 3.246094 353.5 2.789062 352.394531 C 2.328125 351.285156 1.925781 350.15625 1.578125 349.007812 C 1.230469 347.863281 0.9375 346.699219 0.703125 345.523438 C 0.46875 344.347656 0.292969 343.160156 0.175781 341.96875 C 0.0585938 340.773438 0 339.578125 0 338.378906 L 0 36.621094 C 0 35.421875 0.0585938 34.226562 0.175781 33.03125 C 0.292969 31.839844 0.46875 30.652344 0.703125 29.476562 C 0.9375 28.300781 1.230469 27.136719 1.578125 25.992188 C 1.925781 24.84375 2.328125 23.714844 2.789062 22.605469 C 3.246094 21.5 3.757812 20.414062 4.324219 19.359375 C 4.890625 18.300781 5.503906 17.273438 6.171875 16.277344 C 6.839844 15.277344 7.550781 14.316406 8.3125 13.390625 C 9.074219 12.460938 9.878906 11.574219 10.726562 10.726562 C 11.574219 9.878906 12.460938 9.074219 13.390625 8.3125 C 14.316406 7.550781 15.277344 6.839844 16.277344 6.171875 C 17.273438 5.503906 18.300781 4.890625 19.359375 4.324219 C 20.414062 3.757812 21.5 3.246094 22.605469 2.789062 C 23.714844 2.328125 24.84375 1.925781 25.992188 1.578125 C 27.136719 1.230469 28.300781 0.9375 29.476562 0.703125 C 30.652344 0.46875 31.839844 0.292969 33.03125 0.175781 C 34.226562 0.0585938 35.421875 0 36.621094 0 Z M 36.621094 0 " fill-opacity="1" fill-rule="nonzero"/><path fill="#3178c6" d="M 36.621094 0 L 338.378906 0 C 339.578125 0 340.773438 0.0585938 341.96875 0.175781 C 343.160156 0.292969 344.347656 0.46875 345.523438 0.703125 C 346.699219 0.9375 347.863281 1.230469 349.007812 1.578125 C 350.15625 1.925781 351.285156 2.328125 352.394531 2.789062 C 353.5 3.246094 354.585938 3.757812 355.640625 4.324219 C 356.699219 4.890625 357.726562 5.503906 358.722656 6.171875 C 359.722656 6.839844 360.683594 7.550781 361.609375 8.3125 C 362.539062 9.074219 363.425781 9.878906 364.273438 10.726562 C 365.121094 11.574219 365.925781 12.460938 366.6875 13.390625 C 367.449219 14.316406 368.160156 15.277344 368.828125 16.277344 C 369.496094 17.273438 370.109375 18.300781 370.675781 19.359375 C 371.242188 20.414062 371.753906 21.5 372.210938 22.605469 C 372.671875 23.714844 373.074219 24.84375 373.421875 25.992188 C 373.769531 27.136719 374.0625 28.300781 374.296875 29.476562 C 374.53125 30.652344 374.707031 31.839844 374.824219 33.03125 C 374.941406 34.226562 375 35.421875 375 36.621094 L 375 338.378906 C 375 339.578125 374.941406 340.773438 374.824219 341.96875 C 374.707031 343.160156 374.53125 344.347656 374.296875 345.523438 C 374.0625 346.699219 373.769531 347.863281 373.421875 349.007812 C 373.074219 350.15625 372.671875 351.285156 372.210938 352.394531 C 371.753906 353.5 371.242188 354.585938 370.675781 355.640625 C 370.109375 356.699219 369.496094 357.726562 368.828125 358.722656 C 368.160156 359.722656 367.449219 360.683594 366.6875 361.609375 C 365.925781 362.539062 365.121094 363.425781 364.273438 364.273438 C 363.425781 365.121094 362.539062 365.925781 361.609375 366.6875 C 360.683594 367.449219 359.722656 368.160156 358.722656 368.828125 C 357.726562 369.496094 356.699219 370.109375 355.640625 370.675781 C 354.585938 371.242188 353.5 371.753906 352.394531 372.210938 C 351.285156 372.671875 350.15625 373.074219 349.007812 373.421875 C 347.863281 373.769531 346.699219 374.0625 345.523438 374.296875 C 344.347656 374.53125 343.160156 374.707031 341.96875 374.824219 C 340.773438 374.941406 339.578125 375 338.378906 375 L 36.621094 375 C 35.421875 375 34.226562 374.941406 33.03125 374.824219 C 31.839844 374.707031 30.652344 374.53125 29.476562 374.296875 C 28.300781 374.0625 27.136719 373.769531 25.992188 373.421875 C 24.84375 373.074219 23.714844 372.671875 22.605469 372.210938 C 21.5 371.753906 20.414062 371.242188 19.359375 370.675781 C 18.300781 370.109375 17.273438 369.496094 16.277344 368.828125 C 15.277344 368.160156 14.316406 367.449219 13.390625 366.6875 C 12.460938 365.925781 11.574219 365.121094 10.726562 364.273438 C 9.878906 363.425781 9.074219 362.539062 8.3125 361.609375 C 7.550781 360.683594 6.839844 359.722656 6.171875 358.722656 C 5.503906 357.726562 4.890625 356.699219 4.324219 355.640625 C 3.757812 354.585938 3.246094 353.5 2.789062 352.394531 C 2.328125 351.285156 1.925781 350.15625 1.578125 349.007812 C 1.230469 347.863281 0.9375 346.699219 0.703125 345.523438 C 0.46875 344.347656 0.292969 343.160156 0.175781 341.96875 C 0.0585938 340.773438 0 339.578125 0 338.378906 L 0 36.621094 C 0 35.421875 0.0585938 34.226562 0.175781 33.03125 C 0.292969 31.839844 0.46875 30.652344 0.703125 29.476562 C 0.9375 28.300781 1.230469 27.136719 1.578125 25.992188 C 1.925781 24.84375 2.328125 23.714844 2.789062 22.605469 C 3.246094 21.5 3.757812 20.414062 4.324219 19.359375 C 4.890625 18.300781 5.503906 17.273438 6.171875 16.277344 C 6.839844 15.277344 7.550781 14.316406 8.3125 13.390625 C 9.074219 12.460938 9.878906 11.574219 10.726562 10.726562 C 11.574219 9.878906 12.460938 9.074219 13.390625 8.3125 C 14.316406 7.550781 15.277344 6.839844 16.277344 6.171875 C 17.273438 5.503906 18.300781 4.890625 19.359375 4.324219 C 20.414062 3.757812 21.5 3.246094 22.605469 2.789062 C 23.714844 2.328125 24.84375 1.925781 25.992188 1.578125 C 27.136719 1.230469 28.300781 0.9375 29.476562 0.703125 C 30.652344 0.46875 31.839844 0.292969 33.03125 0.175781 C 34.226562 0.0585938 35.421875 0 36.621094 0 Z M 36.621094 0 " fill-opacity="1" fill-rule="nonzero"/><path fill="#ffffff" d="M 232.132812 298.40625 L 232.132812 335.070312 C 238.09375 338.128906 245.144531 340.417969 253.28125 341.945312 C 261.421875 343.472656 269.996094 344.238281 279.015625 344.238281 C 287.804688 344.238281 296.152344 343.398438 304.0625 341.71875 C 311.972656 340.035156 318.90625 337.269531 324.867188 333.410156 C 330.828125 329.554688 335.546875 324.511719 339.023438 318.285156 C 342.5 312.058594 344.238281 304.363281 344.238281 295.199219 C 344.238281 288.550781 343.246094 282.726562 341.257812 277.726562 C 339.269531 272.722656 336.40625 268.273438 332.660156 264.375 C 328.917969 260.480469 324.425781 256.984375 319.191406 253.890625 C 313.957031 250.796875 308.054688 247.875 301.480469 245.125 C 296.667969 243.140625 292.351562 241.210938 288.53125 239.339844 C 284.707031 237.46875 281.460938 235.558594 278.785156 233.613281 C 276.109375 231.664062 274.046875 229.601562 272.597656 227.425781 C 271.144531 225.246094 270.417969 222.785156 270.417969 220.035156 C 270.417969 217.511719 271.066406 215.242188 272.367188 213.214844 C 273.667969 211.191406 275.5 209.453125 277.871094 208.003906 C 280.238281 206.550781 283.140625 205.425781 286.582031 204.621094 C 290.019531 203.820312 293.839844 203.417969 298.042969 203.417969 C 301.101562 203.417969 304.328125 203.648438 307.730469 204.105469 C 311.128906 204.566406 314.550781 205.273438 317.988281 206.226562 C 321.429688 207.179688 324.769531 208.386719 328.019531 209.835938 C 331.265625 211.289062 334.265625 212.96875 337.015625 214.878906 L 337.015625 180.617188 C 331.4375 178.480469 325.34375 176.894531 318.734375 175.863281 C 312.125 174.832031 304.539062 174.316406 295.980469 174.316406 C 287.269531 174.316406 279.015625 175.253906 271.222656 177.125 C 263.425781 178.996094 256.566406 181.917969 250.644531 185.886719 C 244.722656 189.859375 240.042969 194.921875 236.605469 201.070312 C 233.164062 207.21875 231.445312 214.570312 231.445312 223.128906 C 231.445312 234.050781 234.597656 243.371094 240.902344 251.085938 C 247.207031 258.800781 256.777344 265.332031 269.617188 270.679688 C 274.660156 272.742188 279.359375 274.765625 283.714844 276.75 C 288.070312 278.738281 291.835938 280.800781 295.003906 282.9375 C 298.175781 285.078125 300.679688 287.40625 302.515625 289.925781 C 304.347656 292.449219 305.265625 295.3125 305.265625 298.519531 C 305.265625 300.890625 304.691406 303.085938 303.546875 305.109375 C 302.398438 307.132812 300.660156 308.890625 298.332031 310.378906 C 296 311.871094 293.09375 313.035156 289.617188 313.875 C 286.140625 314.714844 282.074219 315.132812 277.410156 315.132812 C 269.464844 315.132812 261.59375 313.742188 253.796875 310.953125 C 246.003906 308.164062 238.78125 303.984375 232.132812 298.40625 Z M 170.492188 208.066406 L 217.527344 208.066406 L 217.527344 177.976562 L 86.425781 177.976562 L 86.425781 208.066406 L 133.230469 208.066406 L 133.230469 342.039062 L 170.492188 342.039062 Z M 170.492188 208.066406 " fill-opacity="1" fill-rule="evenodd"/></svg>