<svg xmlns="http://www.w3.org/2000/svg" xmlns:xlink="http://www.w3.org/1999/xlink" width="500" zoomAndPan="magnify" viewBox="0 0 375 374.999991" height="500" preserveAspectRatio="xMidYMid meet" version="1.0"><path fill="#3963a4" d="M 0 187.5 C 0 184.429688 0.0742188 181.363281 0.226562 178.300781 C 0.375 175.234375 0.601562 172.175781 0.902344 169.121094 C 1.203125 166.066406 1.578125 163.023438 2.03125 159.988281 C 2.480469 156.953125 3.003906 153.929688 3.601562 150.921875 C 4.203125 147.910156 4.875 144.917969 5.621094 141.941406 C 6.363281 138.964844 7.183594 136.007812 8.074219 133.070312 C 8.964844 130.136719 9.925781 127.222656 10.960938 124.332031 C 11.996094 121.445312 13.097656 118.582031 14.273438 115.746094 C 15.445312 112.910156 16.691406 110.105469 18.003906 107.332031 C 19.3125 104.558594 20.691406 101.820312 22.140625 99.113281 C 23.585938 96.40625 25.097656 93.738281 26.675781 91.105469 C 28.253906 88.472656 29.894531 85.882812 31.597656 83.332031 C 33.304688 80.777344 35.070312 78.269531 36.898438 75.804688 C 38.726562 73.339844 40.613281 70.921875 42.558594 68.550781 C 44.507812 66.179688 46.511719 63.855469 48.570312 61.582031 C 50.632812 59.308594 52.746094 57.085938 54.917969 54.917969 C 57.085938 52.746094 59.308594 50.632812 61.582031 48.570312 C 63.855469 46.511719 66.179688 44.507812 68.550781 42.558594 C 70.921875 40.613281 73.339844 38.726562 75.804688 36.898438 C 78.269531 35.070312 80.777344 33.304688 83.332031 31.597656 C 85.882812 29.894531 88.472656 28.253906 91.105469 26.675781 C 93.738281 25.097656 96.40625 23.585938 99.113281 22.140625 C 101.820312 20.691406 104.558594 19.3125 107.332031 18.003906 C 110.105469 16.691406 112.910156 15.445312 115.746094 14.273438 C 118.582031 13.097656 121.445312 11.996094 124.332031 10.960938 C 127.222656 9.925781 130.136719 8.964844 133.070312 8.074219 C 136.007812 7.183594 138.964844 6.363281 141.941406 5.621094 C 144.917969 4.875 147.910156 4.203125 150.921875 3.601562 C 153.929688 3.003906 156.953125 2.480469 159.988281 2.03125 C 163.023438 1.578125 166.066406 1.203125 169.121094 0.902344 C 172.175781 0.601562 175.234375 0.375 178.300781 0.226562 C 181.363281 0.0742188 184.429688 0 187.5 0 C 190.570312 0 193.636719 0.0742188 196.699219 0.226562 C 199.765625 0.375 202.824219 0.601562 205.878906 0.902344 C 208.933594 1.203125 211.976562 1.578125 215.011719 2.03125 C 218.046875 2.480469 221.070312 3.003906 224.078125 3.601562 C 227.089844 4.203125 230.082031 4.875 233.058594 5.621094 C 236.035156 6.363281 238.992188 7.183594 241.929688 8.074219 C 244.863281 8.964844 247.777344 9.925781 250.667969 10.960938 C 253.554688 11.996094 256.417969 13.097656 259.253906 14.273438 C 262.089844 15.445312 264.894531 16.691406 267.667969 18.003906 C 270.441406 19.3125 273.179688 20.691406 275.886719 22.140625 C 278.59375 23.585938 281.261719 25.097656 283.894531 26.675781 C 286.527344 28.253906 289.117188 29.894531 291.667969 31.597656 C 294.222656 33.304688 296.730469 35.070312 299.195312 36.898438 C 301.660156 38.726562 304.078125 40.613281 306.449219 42.558594 C 308.820312 44.507812 311.144531 46.511719 313.417969 48.570312 C 315.691406 50.632812 317.914062 52.746094 320.082031 54.917969 C 322.253906 57.085938 324.367188 59.308594 326.429688 61.582031 C 328.488281 63.855469 330.492188 66.179688 332.4375 68.550781 C 334.386719 70.921875 336.273438 73.339844 338.101562 75.804688 C 339.929688 78.269531 341.695312 80.777344 343.402344 83.332031 C 345.105469 85.882812 346.746094 88.472656 348.324219 91.105469 C 349.902344 93.738281 351.414062 96.40625 352.859375 99.113281 C 354.308594 101.820312 355.6875 104.558594 356.996094 107.332031 C 358.308594 110.105469 359.554688 112.910156 360.726562 115.746094 C 361.902344 118.582031 363.003906 121.445312 364.039062 124.332031 C 365.074219 127.222656 366.035156 130.136719 366.925781 133.070312 C 367.816406 136.007812 368.636719 138.964844 369.378906 141.941406 C 370.125 144.917969 370.796875 147.910156 371.398438 150.921875 C 371.996094 153.929688 372.519531 156.953125 372.96875 159.988281 C 373.421875 163.023438 373.796875 166.066406 374.097656 169.121094 C 374.398438 172.175781 374.625 175.234375 374.773438 178.300781 C 374.925781 181.363281 375 184.429688 375 187.5 C 375 190.570312 374.925781 193.636719 374.773438 196.699219 C 374.625 199.765625 374.398438 202.824219 374.097656 205.878906 C 373.796875 208.933594 373.421875 211.976562 372.96875 215.011719 C 372.519531 218.046875 371.996094 221.070312 371.398438 224.078125 C 370.796875 227.089844 370.125 230.082031 369.378906 233.058594 C 368.636719 236.035156 367.816406 238.992188 366.925781 241.929688 C 366.035156 244.863281 365.074219 247.777344 364.039062 250.667969 C 363.003906 253.554688 361.902344 256.417969 360.726562 259.253906 C 359.554688 262.089844 358.308594 264.894531 356.996094 267.667969 C 355.6875 270.441406 354.308594 273.179688 352.859375 275.886719 C 351.414062 278.59375 349.902344 281.261719 348.324219 283.894531 C 346.746094 286.527344 345.105469 289.117188 343.402344 291.667969 C 341.695312 294.222656 339.929688 296.730469 338.101562 299.195312 C 336.273438 301.660156 334.386719 304.078125 332.4375 306.449219 C 330.492188 308.820312 328.488281 311.144531 326.429688 313.417969 C 324.367188 315.691406 322.253906 317.914062 320.082031 320.082031 C 317.914062 322.253906 315.691406 324.367188 313.417969 326.429688 C 311.144531 328.488281 308.820312 330.492188 306.449219 332.4375 C 304.078125 334.386719 301.660156 336.273438 299.195312 338.101562 C 296.730469 339.929688 294.222656 341.695312 291.667969 343.402344 C 289.117188 345.105469 286.527344 346.746094 283.894531 348.324219 C 281.261719 349.902344 278.59375 351.414062 275.886719 352.859375 C 273.179688 354.308594 270.441406 355.6875 267.667969 356.996094 C 264.894531 358.308594 262.089844 359.554688 259.253906 360.726562 C 256.417969 361.902344 253.554688 363.003906 250.667969 364.039062 C 247.777344 365.074219 244.863281 366.035156 241.929688 366.925781 C 238.992188 367.816406 236.035156 368.636719 233.058594 369.378906 C 230.082031 370.125 227.089844 370.796875 224.078125 371.398438 C 221.070312 371.996094 218.046875 372.519531 215.011719 372.96875 C 211.976562 373.421875 208.933594 373.796875 205.878906 374.097656 C 202.824219 374.398438 199.765625 374.625 196.699219 374.773438 C 193.636719 374.925781 190.570312 375 187.5 375 C 184.429688 375 181.363281 374.925781 178.300781 374.773438 C 175.234375 374.625 172.175781 374.398438 169.121094 374.097656 C 166.066406 373.796875 163.023438 373.421875 159.988281 372.96875 C 156.953125 372.519531 153.929688 371.996094 150.921875 371.398438 C 147.910156 370.796875 144.917969 370.125 141.941406 369.378906 C 138.964844 368.636719 136.007812 367.816406 133.070312 366.925781 C 130.136719 366.035156 127.222656 365.074219 124.332031 364.039062 C 121.445312 363.003906 118.582031 361.902344 115.746094 360.726562 C 112.910156 359.554688 110.105469 358.308594 107.332031 356.996094 C 104.558594 355.6875 101.820312 354.308594 99.113281 352.859375 C 96.40625 351.414062 93.738281 349.902344 91.105469 348.324219 C 88.472656 346.746094 85.882812 345.105469 83.332031 343.402344 C 80.777344 341.695312 78.269531 339.929688 75.804688 338.101562 C 73.339844 336.273438 70.921875 334.386719 68.550781 332.4375 C 66.179688 330.492188 63.855469 328.488281 61.582031 326.429688 C 59.308594 324.367188 57.085938 322.253906 54.917969 320.082031 C 52.746094 317.914062 50.632812 315.691406 48.570312 313.417969 C 46.511719 311.144531 44.507812 308.820312 42.558594 306.449219 C 40.613281 304.078125 38.726562 301.660156 36.898438 299.195312 C 35.070312 296.730469 33.304688 294.222656 31.597656 291.667969 C 29.894531 289.117188 28.253906 286.527344 26.675781 283.894531 C 25.097656 281.261719 23.585938 278.59375 22.140625 275.886719 C 20.691406 273.179688 19.3125 270.441406 18.003906 267.667969 C 16.691406 264.894531 15.445312 262.089844 14.273438 259.253906 C 13.097656 256.417969 11.996094 253.554688 10.960938 250.667969 C 9.925781 247.777344 8.964844 244.863281 8.074219 241.929688 C 7.183594 238.992188 6.363281 236.035156 5.621094 233.058594 C 4.875 230.082031 4.203125 227.089844 3.601562 224.078125 C 3.003906 221.070312 2.480469 218.046875 2.03125 215.011719 C 1.578125 211.976562 1.203125 208.933594 0.902344 205.878906 C 0.601562 202.824219 0.375 199.765625 0.226562 196.699219 C 0.0742188 193.636719 0 190.570312 0 187.5 Z M 0 187.5 " fill-opacity="1" fill-rule="nonzero"/><path fill="#ffffff" d="M 65.25 190.882812 C 65.878906 213.996094 72.929688 235.503906 84.679688 253.695312 C 85.800781 255.429688 86.964844 257.136719 88.167969 258.8125 C 110.347656 289.605469 146.511719 309.652344 187.359375 309.652344 L 187.363281 309.652344 C 228.199219 309.652344 264.359375 289.609375 286.535156 258.828125 C 287.6875 257.234375 288.796875 255.609375 289.871094 253.957031 C 289.925781 253.871094 289.984375 253.78125 290.039062 253.695312 C 302.359375 234.621094 309.511719 211.894531 309.511719 187.5 C 309.511719 121.167969 256.640625 67.183594 190.742188 65.390625 L 190.742188 65.347656 L 183.851562 65.347656 L 183.851562 65.394531 C 146.296875 66.453125 112.984375 84.464844 91.292969 112.042969 C 90.011719 113.667969 88.777344 115.324219 87.582031 117.011719 C 74.117188 136.039062 65.957031 159.082031 65.253906 183.992188 L 65.207031 183.992188 L 65.207031 190.882812 Z M 183.851562 231.679688 L 183.851562 302.507812 C 171.898438 300.777344 159.71875 290.214844 149.902344 270.769531 C 145.050781 261.152344 141 249.75 138.042969 237.042969 C 151.984375 233.828125 167.464844 231.917969 183.851562 231.679688 Z M 190.742188 302.527344 L 190.742188 231.679688 C 207.175781 231.910156 222.699219 233.820312 236.675781 237.042969 C 233.714844 249.75 229.667969 261.152344 224.8125 270.769531 C 214.964844 290.28125 202.734375 300.851562 190.742188 302.527344 Z M 190.742188 190.882812 L 190.742188 225.46875 C 207.558594 225.699219 223.527344 227.644531 237.984375 230.972656 C 240.457031 218.570312 241.914062 205.070312 242.113281 190.882812 Z M 183.851562 190.882812 L 183.851562 225.46875 C 167.082031 225.707031 151.15625 227.652344 136.730469 230.972656 C 134.261719 218.570312 132.804688 205.070312 132.605469 190.882812 Z M 190.742188 183.992188 L 242.109375 183.992188 C 241.867188 167.46875 239.921875 151.878906 236.65625 137.871094 C 222.550781 141.015625 207.042969 142.851562 190.742188 143.074219 Z M 249.003906 190.882812 C 248.800781 205.597656 247.285156 219.667969 244.679688 232.640625 C 260.238281 236.824219 273.796875 242.65625 284.433594 249.671875 C 295.378906 232.621094 301.953125 212.5 302.574219 190.882812 Z M 302.570312 183.992188 L 249 183.992188 C 248.757812 166.980469 246.761719 150.835938 243.351562 136.25 C 258.007812 132.429688 270.929688 127.152344 281.378906 120.804688 C 294.125 138.738281 301.867188 160.480469 302.570312 183.992188 Z M 183.851562 183.992188 L 132.609375 183.992188 C 132.847656 167.46875 134.792969 151.878906 138.0625 137.871094 C 152.132812 141.007812 167.59375 142.839844 183.851562 143.074219 Z M 125.71875 183.992188 C 125.957031 166.980469 127.957031 150.839844 131.367188 136.25 C 116.710938 132.429688 103.789062 127.152344 93.339844 120.804688 C 80.59375 138.738281 72.851562 160.480469 72.148438 183.992188 Z M 72.144531 190.882812 C 72.765625 212.5 79.339844 232.621094 90.285156 249.671875 C 100.921875 242.65625 114.480469 236.824219 130.039062 232.640625 C 127.433594 219.667969 125.917969 205.597656 125.714844 190.882812 Z M 183.851562 72.492188 L 183.851562 136.863281 C 168.0625 136.632812 153.117188 134.851562 139.574219 131.84375 C 142.34375 121.578125 145.839844 112.277344 149.902344 104.230469 C 159.71875 84.785156 171.898438 74.222656 183.851562 72.492188 Z M 190.742188 136.863281 L 190.742188 72.472656 C 202.734375 74.148438 214.964844 84.71875 224.8125 104.230469 C 228.878906 112.277344 232.375 121.578125 235.140625 131.84375 C 221.566406 134.859375 206.574219 136.640625 190.742188 136.863281 Z M 243.359375 238.71875 C 236.886719 266.449219 225.316406 288.558594 211.027344 300.332031 C 239.675781 294.351562 264.421875 277.738281 280.945312 254.804688 C 277.914062 252.808594 274.574219 250.886719 270.9375 249.050781 C 262.886719 244.988281 253.601562 241.488281 243.359375 238.71875 Z M 93.773438 254.804688 C 110.296875 277.738281 135.039062 294.351562 163.6875 300.332031 C 149.402344 288.558594 137.832031 266.449219 131.359375 238.71875 C 121.117188 241.488281 111.832031 244.988281 103.78125 249.050781 C 100.144531 250.886719 96.804688 252.808594 93.773438 254.804688 Z M 270.9375 119.492188 C 273.292969 118.300781 275.523438 117.074219 277.628906 115.816406 C 261.195312 95.152344 237.820312 80.261719 211.027344 74.667969 C 224.257812 85.570312 235.160156 105.339844 241.84375 130.226562 C 252.683594 127.394531 262.488281 123.753906 270.9375 119.492188 Z M 163.6875 74.667969 C 150.457031 85.570312 139.558594 105.339844 132.875 130.226562 C 122.035156 127.394531 112.226562 123.753906 103.78125 119.492188 C 101.425781 118.300781 99.195312 117.074219 97.089844 115.816406 C 113.519531 95.152344 136.898438 80.261719 163.6875 74.667969 Z M 163.6875 74.667969 " fill-opacity="1" fill-rule="evenodd"/></svg>